<svg id="text" xmlns="http://www.w3.org/2000/svg" width="984" height="253.16" viewBox="0 0 984 253.16">
  <title>upsample</title>
  <polygon points="105 22.16 75 82.16 165 82.16 135 22.16 105 22.16" fill="navy" stroke="navy" stroke-miterlimit="10" opacity="0.22"/>
  <polygon points="165 22.16 135 82.16 225 82.16 195 22.16 165 22.16" fill="navy" stroke="navy" stroke-miterlimit="10" opacity="0.22"/>
  <polygon points="285 22.16 255 82.16 315 82.16 315 22.16 285 22.16" fill="navy" stroke="navy" stroke-miterlimit="10" opacity="0.22"/>
  <polygon points="45 22.16 45 82.16 105 82.16 75 22.16 45 22.16" fill="navy" stroke="navy" stroke-miterlimit="10" opacity="0.22"/>
  <rect x="45" y="5.16" width="30.33" height="16.92" fill="#727273" stroke="#231f20" stroke-miterlimit="10"/>
  <rect x="75.33" y="5.16" width="29.92" height="16.92" fill="#f2f2f2" stroke="#231f20" stroke-miterlimit="10"/>
  <rect x="105.25" y="5.16" width="29.92" height="16.92" fill="#727273" stroke="#231f20" stroke-miterlimit="10"/>
  <rect x="135.17" y="5.16" width="29.92" height="16.92" fill="#f2f2f2" stroke="#231f20" stroke-miterlimit="10"/>
  <rect x="165.08" y="5.16" width="29.92" height="16.92" fill="#727273" stroke="#231f20" stroke-miterlimit="10"/>
  <rect x="195" y="5.16" width="29.92" height="16.92" fill="#f2f2f2" stroke="#231f20" stroke-miterlimit="10"/>
  <rect x="284.92" y="5.16" width="30.08" height="16.92" fill="#727273" stroke="#231f20" stroke-miterlimit="10"/>
  <rect x="45" y="82.16" width="30.33" height="16.92" fill="silver" stroke="#231f20" stroke-miterlimit="10"/>
  <rect x="75.33" y="82.16" width="29.92" height="16.92" fill="#727273" stroke="#231f20" stroke-miterlimit="10"/>
  <rect x="105.25" y="82.16" width="29.92" height="16.92" fill="silver" stroke="#231f20" stroke-miterlimit="10"/>
  <rect x="135.17" y="82.16" width="29.92" height="16.92" fill="#727273" stroke="#231f20" stroke-miterlimit="10"/>
  <rect x="165.08" y="82.16" width="29.92" height="16.92" fill="silver" stroke="#231f20" stroke-miterlimit="10"/>
  <rect x="195" y="82.16" width="29.92" height="16.92" fill="#727273" stroke="#231f20" stroke-miterlimit="10"/>
  <polygon points="225 22.16 195 82.16 285 82.16 255 22.16 225 22.16" fill="navy" stroke="navy" stroke-miterlimit="10" opacity="0.22"/>
  <rect x="225.08" y="5.16" width="29.92" height="16.92" fill="#727273" stroke="#231f20" stroke-miterlimit="10"/>
  <rect x="255" y="5.16" width="29.92" height="16.92" fill="#f2f2f2" stroke="#231f20" stroke-miterlimit="10"/>
  <rect x="225.08" y="82.16" width="29.92" height="16.92" fill="silver" stroke="#231f20" stroke-miterlimit="10"/>
  <rect x="255" y="82.16" width="29.92" height="16.92" fill="#727273" stroke="#231f20" stroke-miterlimit="10"/>
  <rect x="284.92" y="82.16" width="30.08" height="16.92" fill="silver" stroke="#231f20" stroke-miterlimit="10"/>
  <g>
    <polygon points="357 144.47 357 115.16 362.78 115.16 362.78 116.53 358.4 116.53 358.4 144.47 357 144.47"/>
    <rect x="357" y="143.66" width="1.4" height="65.18"/>
    <polygon points="357 225.62 357 208.02 358.4 208.02 358.4 224.25 362.78 224.25 362.78 225.62 357 225.62"/>
  </g>
  <g>
    <polygon points="621 116.53 621 115.16 626.78 115.16 626.78 144.47 625.38 144.47 625.38 116.53 621 116.53"/>
    <rect x="625.38" y="143.66" width="1.4" height="65.18"/>
    <polygon points="625.38 224.25 625.38 208.02 626.78 208.02 626.78 225.62 621 225.62 621 224.25 625.38 224.25"/>
  </g>
  <path d="M487.6,128a4.75,4.75,0,0,1,4.39-4.47,2.36,2.36,0,0,1,1.42.38,1.22,1.22,0,0,1,.53,1,1.07,1.07,0,0,1-.31.77,1.09,1.09,0,0,1-.78.33,0.7,0.7,0,0,1-.48-0.16,0.6,0.6,0,0,1-.18-0.47,0.83,0.83,0,0,1,.18-0.54,1.46,1.46,0,0,1,.36-0.33,0.41,0.41,0,0,1,.23-0.09h0a0.19,0.19,0,0,0-.1-0.09,1.25,1.25,0,0,0-.34-0.13,2.18,2.18,0,0,0-.55-0.06,2,2,0,0,0-.92.22,2.28,2.28,0,0,0-.69.49,4.09,4.09,0,0,0-1,2,9.53,9.53,0,0,0-.34,1.83,1.36,1.36,0,0,0,.42,1.09,1.22,1.22,0,0,0,.94.38h0.06a3.8,3.8,0,0,0,3-1.34,0.46,0.46,0,0,1,.19-0.16,0.42,0.42,0,0,1,.21.14,0.54,0.54,0,0,1,.16.22,0.34,0.34,0,0,1-.15.24l-0.47.44a2.68,2.68,0,0,1-.73.47q-0.42.19-1,.39a3.52,3.52,0,0,1-1.29.17,2.61,2.61,0,0,1-2-.76A2.7,2.7,0,0,1,487.6,128Z"/>
  <g>
    <path d="M481.79,154.4v-0.09a1,1,0,0,0-1-1.17,1.41,1.41,0,0,0-.57.13,2.14,2.14,0,0,0-.53.33l-0.42.38a2.08,2.08,0,0,0-.29.35l-0.1.13-0.34,1.36a8.91,8.91,0,0,0-.36,1.93,1.52,1.52,0,0,0,.39,1.14,0.89,0.89,0,0,0,.65.25,1.62,1.62,0,0,0,1.08-.51,2.71,2.71,0,0,0,.65-0.88,10.36,10.36,0,0,0,.53-1.66A7.61,7.61,0,0,0,481.79,154.4Zm-4.25-5.09a1.23,1.23,0,0,1,.06-0.36,0.23,0.23,0,0,1,.19-0.21l1.16-.08,1.18-.09q0.19,0,.19.14T479.78,151q-0.13.54-.27,1.11t-0.24.85l-0.06.3s0,0,.1,0a2.59,2.59,0,0,1,1.63-.63,2,2,0,0,1,1.61.73,2.81,2.81,0,0,1,.63,1.83,4.64,4.64,0,0,1-1.28,3.17,3.68,3.68,0,0,1-2.75,1.42,2.14,2.14,0,0,1-1.47-.6,2.55,2.55,0,0,1-.68-1.94V157a4.54,4.54,0,0,1,.13-0.92q0.13-.58.79-3.11,0.81-3.11.81-3.3t-0.61-.22H477.7a0.2,0.2,0,0,1-.11,0A0.1,0.1,0,0,1,477.54,149.32Z"/>
    <path d="M485.08,155.79v-0.21a0.34,0.34,0,0,1,.23-0.32h4.83V152.9l0-2.37a0.43,0.43,0,0,1,.31-0.21,0.35,0.35,0,0,1,.32.24v4.71h4.81a0.33,0.33,0,0,1,0,.63h-4.81v4.71a0.36,0.36,0,0,1-.29.22h-0.06a0.31,0.31,0,0,1-.29-0.22V155.9h-4.83a0.34,0.34,0,0,1-.23-0.32v0.21Z"/>
    <path d="M498.19,157a4.75,4.75,0,0,1,4.39-4.47,2.36,2.36,0,0,1,1.42.38,1.22,1.22,0,0,1,.53,1,1.07,1.07,0,0,1-.31.77,1.09,1.09,0,0,1-.78.33,0.7,0.7,0,0,1-.48-0.16,0.6,0.6,0,0,1-.18-0.47,0.83,0.83,0,0,1,.18-0.54,1.46,1.46,0,0,1,.36-0.33,0.41,0.41,0,0,1,.23-0.09h0a0.19,0.19,0,0,0-.1-0.09,1.25,1.25,0,0,0-.34-0.13,2.18,2.18,0,0,0-.55-0.06,2,2,0,0,0-.92.22,2.28,2.28,0,0,0-.69.49,4.09,4.09,0,0,0-1,2,9.54,9.54,0,0,0-.34,1.83,1.36,1.36,0,0,0,.42,1.09,1.22,1.22,0,0,0,.94.38H501a3.8,3.8,0,0,0,3-1.34,0.46,0.46,0,0,1,.19-0.16,0.42,0.42,0,0,1,.21.14,0.54,0.54,0,0,1,.16.22,0.34,0.34,0,0,1-.15.24l-0.47.44a2.68,2.68,0,0,1-.73.47q-0.42.19-1,.39a3.52,3.52,0,0,1-1.29.17,2.61,2.61,0,0,1-2-.76A2.7,2.7,0,0,1,498.19,157Z"/>
  </g>
  <g>
    <path d="M481.34,183.42a1.41,1.41,0,0,0-.08-0.35,1.5,1.5,0,0,0-.37-0.55,1,1,0,0,0-.74-0.32,1.57,1.57,0,0,0-1.08.49,3.3,3.3,0,0,0-.81,1.28,12.38,12.38,0,0,0-.66,2.59v0.17a0.82,0.82,0,0,1,0,.19,1.31,1.31,0,0,0,.29,1,1.05,1.05,0,0,0,.69.28,1.84,1.84,0,0,0,1.21-.52,2.67,2.67,0,0,0,.71-0.81s0.17-.61.44-1.69S481.32,183.51,481.34,183.42Zm-5.13,2.7a4.61,4.61,0,0,1,1.23-3,3.64,3.64,0,0,1,2.76-1.45,1.84,1.84,0,0,1,1.45.77,0.81,0.81,0,0,1,.74-0.47,0.59,0.59,0,0,1,.37.13,0.39,0.39,0,0,1,.16.32q0,0.21-.6,2.53t-0.61,2.62a0.83,0.83,0,0,0,.11.52,0.48,0.48,0,0,0,.34.14,0.71,0.71,0,0,0,.32-0.14,3.55,3.55,0,0,0,.66-1.52,0.58,0.58,0,0,1,.16-0.33l0.16,0h0.06q0.31,0,.31.14a2.46,2.46,0,0,1-.08.43,4.89,4.89,0,0,1-.32.85,2.69,2.69,0,0,1-.52.79,1.6,1.6,0,0,1-.52.33,1.76,1.76,0,0,1-.39,0,1.68,1.68,0,0,1-.92-0.24,1.22,1.22,0,0,1-.48-0.49l-0.1-.24a0.06,0.06,0,0,0-.06,0l-0.06.06a2.86,2.86,0,0,1-1.94.88,2.23,2.23,0,0,1-1.57-.63A2.63,2.63,0,0,1,476.2,186.12Z"/>
    <path d="M486,184.86v-0.21a0.34,0.34,0,0,1,.23-0.32h4.83V182l0-2.37a0.43,0.43,0,0,1,.31-0.21,0.35,0.35,0,0,1,.32.24v4.71h4.81a0.33,0.33,0,0,1,0,.63H491.7v4.71a0.36,0.36,0,0,1-.29.22h-0.06a0.31,0.31,0,0,1-.29-0.22V185h-4.83a0.34,0.34,0,0,1-.23-0.32v0.21Z"/>
    <path d="M504,183.47v-0.09a1,1,0,0,0-1-1.17,1.41,1.41,0,0,0-.57.13,2.14,2.14,0,0,0-.53.33l-0.42.38a2.07,2.07,0,0,0-.29.35l-0.1.13-0.34,1.36a8.92,8.92,0,0,0-.36,1.93,1.52,1.52,0,0,0,.39,1.14,0.89,0.89,0,0,0,.65.25,1.62,1.62,0,0,0,1.08-.51,2.71,2.71,0,0,0,.65-0.88,10.37,10.37,0,0,0,.53-1.66A7.61,7.61,0,0,0,504,183.47Zm-4.25-5.09a1.23,1.23,0,0,1,.06-0.36,0.23,0.23,0,0,1,.19-0.21l1.16-.08,1.18-.09q0.19,0,.19.14T502,180q-0.13.54-.27,1.11t-0.24.85l-0.06.3s0,0,.1,0a2.59,2.59,0,0,1,1.63-.63,2,2,0,0,1,1.61.73,2.81,2.81,0,0,1,.63,1.83,4.64,4.64,0,0,1-1.28,3.17,3.68,3.68,0,0,1-2.75,1.42,2.14,2.14,0,0,1-1.47-.6,2.55,2.55,0,0,1-.68-1.94v-0.14a4.54,4.54,0,0,1,.13-0.92q0.13-.58.79-3.11,0.81-3.11.81-3.3t-0.61-.22H499.9a0.2,0.2,0,0,1-.11,0A0.1,0.1,0,0,1,499.74,178.38Z"/>
  </g>
  <path d="M492.11,213.25a1.4,1.4,0,0,0-.08-0.35,1.5,1.5,0,0,0-.37-0.55,1,1,0,0,0-.74-0.32,1.57,1.57,0,0,0-1.08.49,3.3,3.3,0,0,0-.81,1.28,12.39,12.39,0,0,0-.66,2.59v0.17a0.82,0.82,0,0,1,0,.19,1.31,1.31,0,0,0,.29,1,1.05,1.05,0,0,0,.69.28,1.84,1.84,0,0,0,1.21-.52,2.67,2.67,0,0,0,.71-0.81s0.17-.61.44-1.69S492.09,213.33,492.11,213.25Zm-5.13,2.7a4.61,4.61,0,0,1,1.23-3,3.64,3.64,0,0,1,2.76-1.45,1.84,1.84,0,0,1,1.45.77,0.81,0.81,0,0,1,.74-0.47,0.59,0.59,0,0,1,.37.13,0.39,0.39,0,0,1,.16.32q0,0.21-.6,2.53t-0.61,2.62a0.83,0.83,0,0,0,.11.52,0.48,0.48,0,0,0,.34.14,0.71,0.71,0,0,0,.32-0.14,3.55,3.55,0,0,0,.66-1.52,0.58,0.58,0,0,1,.16-0.33l0.16,0h0.06q0.31,0,.31.14a2.46,2.46,0,0,1-.08.43,4.89,4.89,0,0,1-.32.85,2.69,2.69,0,0,1-.52.79,1.6,1.6,0,0,1-.52.33,1.76,1.76,0,0,1-.39,0,1.68,1.68,0,0,1-.92-0.24,1.22,1.22,0,0,1-.48-0.49l-0.1-.24a0.06,0.06,0,0,0-.06,0l-0.06.06a2.86,2.86,0,0,1-1.94.88,2.23,2.23,0,0,1-1.57-.63A2.63,2.63,0,0,1,487,215.95Z"/>
  <g>
    <path d="M407.76,123.21a1.41,1.41,0,0,0-.08-0.35,1.5,1.5,0,0,0-.37-0.55,1,1,0,0,0-.74-0.32,1.57,1.57,0,0,0-1.08.49,3.3,3.3,0,0,0-.81,1.28,12.38,12.38,0,0,0-.66,2.59v0.17a0.82,0.82,0,0,1,0,.19,1.31,1.31,0,0,0,.29,1,1.05,1.05,0,0,0,.69.28,1.84,1.84,0,0,0,1.21-.52,2.67,2.67,0,0,0,.71-0.81s0.17-.61.44-1.69S407.75,123.29,407.76,123.21Zm-5.13,2.7a4.61,4.61,0,0,1,1.23-3,3.64,3.64,0,0,1,2.76-1.45,1.84,1.84,0,0,1,1.45.77,0.81,0.81,0,0,1,.74-0.47,0.59,0.59,0,0,1,.37.13,0.39,0.39,0,0,1,.16.32q0,0.21-.6,2.53t-0.61,2.62a0.83,0.83,0,0,0,.11.52,0.48,0.48,0,0,0,.34.14,0.71,0.71,0,0,0,.32-0.14,3.55,3.55,0,0,0,.66-1.52,0.58,0.58,0,0,1,.16-0.33l0.16,0H410q0.31,0,.31.14a2.46,2.46,0,0,1-.08.43,4.89,4.89,0,0,1-.32.85,2.69,2.69,0,0,1-.52.79,1.6,1.6,0,0,1-.52.33,1.76,1.76,0,0,1-.39,0,1.68,1.68,0,0,1-.92-0.24,1.22,1.22,0,0,1-.48-0.49l-0.1-.24a0.06,0.06,0,0,0-.06,0l-0.06.06a2.86,2.86,0,0,1-1.94.88,2.23,2.23,0,0,1-1.57-.63A2.63,2.63,0,0,1,402.62,125.91Z"/>
    <path d="M412.42,124.64v-0.21a0.34,0.34,0,0,1,.23-0.32h4.83v-2.37l0-2.37a0.43,0.43,0,0,1,.31-0.21,0.35,0.35,0,0,1,.32.24v4.71h4.81a0.33,0.33,0,0,1,0,.63h-4.81v4.71a0.36,0.36,0,0,1-.29.22h-0.06a0.31,0.31,0,0,1-.29-0.22v-4.71h-4.83a0.34,0.34,0,0,1-.23-0.32v0.21Z"/>
    <path d="M430.41,123.25v-0.09a1,1,0,0,0-1-1.17,1.41,1.41,0,0,0-.57.13,2.14,2.14,0,0,0-.53.33l-0.42.38a2.07,2.07,0,0,0-.29.35l-0.1.13-0.34,1.36a8.92,8.92,0,0,0-.36,1.93,1.52,1.52,0,0,0,.39,1.14,0.89,0.89,0,0,0,.65.25,1.62,1.62,0,0,0,1.08-.51,2.71,2.71,0,0,0,.65-0.88,10.37,10.37,0,0,0,.53-1.66A7.61,7.61,0,0,0,430.41,123.25Zm-4.25-5.09a1.23,1.23,0,0,1,.06-0.36,0.23,0.23,0,0,1,.19-0.21l1.16-.08,1.18-.09q0.19,0,.19.14t-0.55,2.26q-0.13.54-.27,1.11t-0.24.85l-0.06.3s0,0,.1,0a2.59,2.59,0,0,1,1.63-.63,2,2,0,0,1,1.61.73,2.81,2.81,0,0,1,.63,1.83,4.64,4.64,0,0,1-1.28,3.17,3.68,3.68,0,0,1-2.75,1.42,2.14,2.14,0,0,1-1.47-.6,2.55,2.55,0,0,1-.68-1.94v-0.14a4.54,4.54,0,0,1,.13-0.92q0.13-.58.79-3.11,0.81-3.11.81-3.3t-0.61-.22h-0.42a0.2,0.2,0,0,1-.11,0A0.1,0.1,0,0,1,426.16,118.17Z"/>
  </g>
  <path d="M418.53,154.78a1.4,1.4,0,0,0-.08-0.35,1.5,1.5,0,0,0-.37-0.55,1,1,0,0,0-.74-0.32,1.57,1.57,0,0,0-1.08.49,3.3,3.3,0,0,0-.81,1.28,12.39,12.39,0,0,0-.66,2.59v0.17a0.82,0.82,0,0,1,0,.19,1.31,1.31,0,0,0,.29,1,1.05,1.05,0,0,0,.69.28A1.84,1.84,0,0,0,417,159a2.67,2.67,0,0,0,.71-0.81s0.17-.61.44-1.69S418.52,154.86,418.53,154.78Zm-5.13,2.7a4.61,4.61,0,0,1,1.23-3,3.64,3.64,0,0,1,2.76-1.45,1.84,1.84,0,0,1,1.45.77,0.81,0.81,0,0,1,.74-0.47,0.59,0.59,0,0,1,.37.13,0.39,0.39,0,0,1,.16.32q0,0.21-.6,2.53t-0.61,2.62a0.83,0.83,0,0,0,.11.52,0.48,0.48,0,0,0,.34.14,0.71,0.71,0,0,0,.32-0.14,3.55,3.55,0,0,0,.66-1.52,0.58,0.58,0,0,1,.16-0.33l0.16,0h0.06q0.31,0,.31.14a2.46,2.46,0,0,1-.08.43,4.89,4.89,0,0,1-.32.85,2.69,2.69,0,0,1-.52.79,1.6,1.6,0,0,1-.52.33,1.76,1.76,0,0,1-.39,0,1.68,1.68,0,0,1-.92-0.24,1.22,1.22,0,0,1-.48-0.49l-0.1-.24a0.06,0.06,0,0,0-.06,0l-0.06.06a2.86,2.86,0,0,1-1.94.88,2.23,2.23,0,0,1-1.57-.63A2.63,2.63,0,0,1,413.39,157.48Z"/>
  <path d="M564.12,186.49a4.75,4.75,0,0,1,4.39-4.47,2.36,2.36,0,0,1,1.42.38,1.22,1.22,0,0,1,.53,1,1.07,1.07,0,0,1-.31.77,1.09,1.09,0,0,1-.78.33,0.7,0.7,0,0,1-.48-0.16,0.6,0.6,0,0,1-.18-0.47,0.83,0.83,0,0,1,.18-0.54,1.46,1.46,0,0,1,.36-0.33,0.41,0.41,0,0,1,.23-0.09h0a0.19,0.19,0,0,0-.1-0.09,1.25,1.25,0,0,0-.34-0.13,2.18,2.18,0,0,0-.55-0.06,2,2,0,0,0-.92.22,2.28,2.28,0,0,0-.69.49,4.09,4.09,0,0,0-1,2,9.53,9.53,0,0,0-.34,1.83,1.36,1.36,0,0,0,.42,1.09,1.22,1.22,0,0,0,.94.38H567a3.8,3.8,0,0,0,3-1.34,0.46,0.46,0,0,1,.19-0.16,0.42,0.42,0,0,1,.21.14,0.54,0.54,0,0,1,.16.22,0.34,0.34,0,0,1-.15.24l-0.47.44a2.68,2.68,0,0,1-.73.47q-0.42.19-1,.39a3.52,3.52,0,0,1-1.29.17,2.61,2.61,0,0,1-2-.76A2.7,2.7,0,0,1,564.12,186.49Z"/>
  <g>
    <path d="M558.31,212.87v-0.09a1,1,0,0,0-1-1.17,1.41,1.41,0,0,0-.57.13,2.14,2.14,0,0,0-.53.33l-0.42.38a2.08,2.08,0,0,0-.29.35l-0.1.13-0.34,1.36a8.91,8.91,0,0,0-.36,1.93,1.52,1.52,0,0,0,.39,1.14,0.89,0.89,0,0,0,.65.25,1.62,1.62,0,0,0,1.08-.51,2.71,2.71,0,0,0,.65-0.88,10.36,10.36,0,0,0,.53-1.66A7.61,7.61,0,0,0,558.31,212.87Zm-4.25-5.09a1.23,1.23,0,0,1,.06-0.36,0.23,0.23,0,0,1,.19-0.21l1.16-.08,1.18-.09q0.19,0,.19.14t-0.55,2.26q-0.13.54-.27,1.11t-0.24.85l-0.06.3s0,0,.1,0a2.59,2.59,0,0,1,1.63-.63,2,2,0,0,1,1.61.73,2.81,2.81,0,0,1,.63,1.83,4.64,4.64,0,0,1-1.28,3.17,3.68,3.68,0,0,1-2.75,1.42,2.14,2.14,0,0,1-1.47-.6,2.55,2.55,0,0,1-.68-1.94v-0.14a4.54,4.54,0,0,1,.13-0.92q0.13-.58.79-3.11,0.81-3.11.81-3.3t-0.61-.22h-0.42a0.2,0.2,0,0,1-.11,0A0.1,0.1,0,0,1,554.06,207.79Z"/>
    <path d="M561.61,214.26v-0.21a0.34,0.34,0,0,1,.23-0.32h4.83v-2.37l0-2.37a0.43,0.43,0,0,1,.31-0.21,0.35,0.35,0,0,1,.32.24v4.71h4.81a0.33,0.33,0,0,1,0,.63h-4.81v4.71a0.36,0.36,0,0,1-.29.22H567a0.31,0.31,0,0,1-.29-0.22v-4.71h-4.83a0.34,0.34,0,0,1-.23-0.32v0.21Z"/>
    <path d="M574.72,215.49a4.75,4.75,0,0,1,4.39-4.47,2.36,2.36,0,0,1,1.42.38,1.22,1.22,0,0,1,.53,1,1.07,1.07,0,0,1-.31.77,1.09,1.09,0,0,1-.78.33,0.7,0.7,0,0,1-.48-0.16,0.6,0.6,0,0,1-.18-0.47,0.83,0.83,0,0,1,.18-0.54,1.46,1.46,0,0,1,.36-0.33,0.41,0.41,0,0,1,.23-0.09h0a0.19,0.19,0,0,0-.1-0.09,1.25,1.25,0,0,0-.34-0.13,2.18,2.18,0,0,0-.55-0.06,2,2,0,0,0-.92.22,2.28,2.28,0,0,0-.69.49,4.09,4.09,0,0,0-1,2,9.54,9.54,0,0,0-.34,1.83,1.36,1.36,0,0,0,.42,1.09,1.22,1.22,0,0,0,.94.38h0.06a3.8,3.8,0,0,0,3-1.34,0.46,0.46,0,0,1,.19-0.16,0.42,0.42,0,0,1,.21.14,0.54,0.54,0,0,1,.16.22,0.34,0.34,0,0,1-.15.24l-0.47.44a2.68,2.68,0,0,1-.73.47q-0.42.19-1,.39a3.52,3.52,0,0,1-1.29.17,2.61,2.61,0,0,1-2-.76A2.7,2.7,0,0,1,574.72,215.49Z"/>
  </g>
  <g>
    <polygon points="45.95 144.78 45.95 115.16 51.73 115.16 51.73 116.54 47.35 116.54 47.35 144.78 45.95 144.78"/>
    <rect x="45.95" y="143.96" width="1.4" height="65.86"/>
    <polygon points="45.95 225.62 45.95 208.99 47.35 208.99 47.35 224.23 51.73 224.23 51.73 225.62 45.95 225.62"/>
  </g>
  <g>
    <polygon points="309 116.54 309 115.16 314.78 115.16 314.78 144.78 313.38 144.78 313.38 116.54 309 116.54"/>
    <rect x="313.38" y="143.96" width="1.4" height="65.86"/>
    <polygon points="313.38 224.23 313.38 208.99 314.78 208.99 314.78 225.62 309 225.62 309 224.23 313.38 224.23"/>
  </g>
  <path d="M106.22,123.45a1.6,1.6,0,0,0-.09-0.39,1.7,1.7,0,0,0-.42-0.62,1.16,1.16,0,0,0-.83-0.36,1.74,1.74,0,0,0-1.21.55,3.73,3.73,0,0,0-.9,1.45A14.12,14.12,0,0,0,102,127v0.2a0.94,0.94,0,0,1,0,.21,1.49,1.49,0,0,0,.33,1.11,1.17,1.17,0,0,0,.78.32,2.05,2.05,0,0,0,1.35-.59,3,3,0,0,0,.79-0.91s0.19-.68.49-1.91S106.21,123.55,106.22,123.45Zm-5.74,3.05a5.24,5.24,0,0,1,1.37-3.43,4.05,4.05,0,0,1,3.09-1.64,2.05,2.05,0,0,1,1.63.87,0.9,0.9,0,0,1,.83-0.54,0.65,0.65,0,0,1,.42.14,0.44,0.44,0,0,1,.18.36q0,0.23-.67,2.86t-0.69,3a1,1,0,0,0,.13.59,0.53,0.53,0,0,0,.38.16,0.79,0.79,0,0,0,.36-0.16,4,4,0,0,0,.74-1.71,0.66,0.66,0,0,1,.18-0.37l0.18,0h0.07q0.34,0,.34.16a2.8,2.8,0,0,1-.09.48,5.55,5.55,0,0,1-.36,1,3,3,0,0,1-.58.89,1.79,1.79,0,0,1-.58.37,2,2,0,0,1-.43,0,1.86,1.86,0,0,1-1-.27,1.38,1.38,0,0,1-.54-0.55l-0.11-.27s0,0-.07,0l-0.07.07a3.18,3.18,0,0,1-2.17,1,2.48,2.48,0,0,1-1.75-.71A3,3,0,0,1,100.47,126.5Z"/>
  <path d="M179.22,183.1a1.6,1.6,0,0,0-.09-0.39,1.7,1.7,0,0,0-.42-0.62,1.16,1.16,0,0,0-.83-0.36,1.74,1.74,0,0,0-1.21.55,3.73,3.73,0,0,0-.9,1.45,14.12,14.12,0,0,0-.74,2.93v0.2a0.94,0.94,0,0,1,0,.21,1.49,1.49,0,0,0,.33,1.11,1.17,1.17,0,0,0,.78.32,2.05,2.05,0,0,0,1.35-.59,3,3,0,0,0,.79-0.91s0.19-.68.49-1.91S179.21,183.19,179.22,183.1Zm-5.74,3.05a5.24,5.24,0,0,1,1.37-3.43,4.05,4.05,0,0,1,3.09-1.64,2.05,2.05,0,0,1,1.63.87,0.9,0.9,0,0,1,.83-0.54,0.65,0.65,0,0,1,.42.14,0.44,0.44,0,0,1,.18.36q0,0.23-.67,2.86t-0.69,3a1,1,0,0,0,.13.59,0.53,0.53,0,0,0,.38.16,0.79,0.79,0,0,0,.36-0.16,4,4,0,0,0,.74-1.71,0.66,0.66,0,0,1,.18-0.37l0.18,0h0.07q0.34,0,.34.16a2.8,2.8,0,0,1-.09.48,5.55,5.55,0,0,1-.36,1,3,3,0,0,1-.58.89,1.79,1.79,0,0,1-.58.37,2,2,0,0,1-.43,0,1.86,1.86,0,0,1-1-.27,1.38,1.38,0,0,1-.54-0.55L178.3,188s0,0-.07,0l-0.07.07a3.18,3.18,0,0,1-2.17,1,2.48,2.48,0,0,1-1.75-.71A3,3,0,0,1,173.47,186.15Z"/>
  <path d="M179.16,154.82v-0.11a1.08,1.08,0,0,0-1.1-1.32,1.57,1.57,0,0,0-.63.14,2.39,2.39,0,0,0-.6.37q-0.27.23-.47,0.43a2.34,2.34,0,0,0-.33.39l-0.11.14-0.38,1.54a10.17,10.17,0,0,0-.4,2.18,1.73,1.73,0,0,0,.43,1.29,1,1,0,0,0,.72.29,1.81,1.81,0,0,0,1.21-.57,3.06,3.06,0,0,0,.72-1,11.8,11.8,0,0,0,.6-1.87A8.68,8.68,0,0,0,179.16,154.82Zm-4.75-5.75a1.4,1.4,0,0,1,.07-0.41,0.26,0.26,0,0,1,.22-0.23l1.3-.09,1.32-.11q0.22,0,.22.16t-0.61,2.55q-0.14.61-.31,1.25t-0.27,1l-0.07.34s0,0,.11-0.05a2.88,2.88,0,0,1,1.82-.71,2.24,2.24,0,0,1,1.81.82,3.19,3.19,0,0,1,.7,2.07,5.27,5.27,0,0,1-1.43,3.59,4.11,4.11,0,0,1-3.07,1.61,2.38,2.38,0,0,1-1.64-.68,2.9,2.9,0,0,1-.76-2.2v-0.16a5.18,5.18,0,0,1,.14-1q0.14-.66.88-3.52,0.9-3.52.9-3.73t-0.69-.25h-0.47a0.22,0.22,0,0,1-.13-0.05A0.11,0.11,0,0,1,174.41,149.07Z"/>
  <path d="M173.75,128.12a4.83,4.83,0,0,1,1.55-3.5,4.69,4.69,0,0,1,3.36-1.55,2.62,2.62,0,0,1,1.59.43,1.38,1.38,0,0,1,.6,1.12,1.23,1.23,0,0,1-1.21,1.25,0.78,0.78,0,0,1-.54-0.18,0.68,0.68,0,0,1-.2-0.54,1,1,0,0,1,.2-0.61,1.64,1.64,0,0,1,.4-0.37,0.45,0.45,0,0,1,.25-0.11h0a0.21,0.21,0,0,0-.11-0.11,1.39,1.39,0,0,0-.38-0.14,2.41,2.41,0,0,0-.61-0.07,2.23,2.23,0,0,0-1,.25,2.55,2.55,0,0,0-.78.55,4.64,4.64,0,0,0-1.16,2.21,10.89,10.89,0,0,0-.38,2.07,1.55,1.55,0,0,0,.47,1.23,1.36,1.36,0,0,0,1,.43h0.07a4.23,4.23,0,0,0,3.34-1.52,0.51,0.51,0,0,1,.22-0.18,0.47,0.47,0,0,1,.23.16,0.61,0.61,0,0,1,.18.25,0.38,0.38,0,0,1-.16.27l-0.52.5a3,3,0,0,1-.81.54q-0.47.21-1.16,0.45a3.9,3.9,0,0,1-1.44.2,2.91,2.91,0,0,1-2.19-.86A3.06,3.06,0,0,1,173.75,128.12Z"/>
  <path d="M249.88,212.28v-0.11a1.08,1.08,0,0,0-1.1-1.32,1.57,1.57,0,0,0-.63.14,2.39,2.39,0,0,0-.6.37q-0.27.23-.47,0.43a2.34,2.34,0,0,0-.33.39l-0.11.14-0.38,1.54a10.17,10.17,0,0,0-.4,2.18,1.73,1.73,0,0,0,.43,1.29,1,1,0,0,0,.72.29,1.81,1.81,0,0,0,1.21-.57,3.06,3.06,0,0,0,.72-1,11.8,11.8,0,0,0,.6-1.87A8.68,8.68,0,0,0,249.88,212.28Zm-4.75-5.75a1.4,1.4,0,0,1,.07-0.41,0.26,0.26,0,0,1,.22-0.23l1.3-.09,1.32-.11q0.22,0,.22.16t-0.61,2.55q-0.14.61-.31,1.25t-0.27,1L247,211s0,0,.11-0.05a2.88,2.88,0,0,1,1.82-.71,2.24,2.24,0,0,1,1.81.82,3.19,3.19,0,0,1,.7,2.07,5.27,5.27,0,0,1-1.43,3.59,4.11,4.11,0,0,1-3.07,1.61,2.38,2.38,0,0,1-1.64-.68,2.9,2.9,0,0,1-.76-2.2v-0.16a5.18,5.18,0,0,1,.14-1q0.14-.66.88-3.52,0.9-3.52.9-3.73t-0.69-.25h-0.47a0.22,0.22,0,0,1-.13-0.05A0.11,0.11,0,0,1,245.13,206.54Z"/>
  <path d="M244.47,186.09a4.83,4.83,0,0,1,1.55-3.5,4.69,4.69,0,0,1,3.36-1.55,2.62,2.62,0,0,1,1.59.43,1.38,1.38,0,0,1,.6,1.12,1.23,1.23,0,0,1-1.21,1.25,0.78,0.78,0,0,1-.54-0.18,0.68,0.68,0,0,1-.2-0.54,1,1,0,0,1,.2-0.61,1.64,1.64,0,0,1,.4-0.37,0.45,0.45,0,0,1,.25-0.11h0a0.21,0.21,0,0,0-.11-0.11,1.39,1.39,0,0,0-.38-0.14,2.41,2.41,0,0,0-.61-0.07,2.23,2.23,0,0,0-1,.25,2.55,2.55,0,0,0-.78.55,4.64,4.64,0,0,0-1.16,2.21,10.89,10.89,0,0,0-.38,2.07,1.55,1.55,0,0,0,.47,1.23,1.36,1.36,0,0,0,1,.43h0.07a4.23,4.23,0,0,0,3.34-1.52,0.51,0.51,0,0,1,.22-0.18,0.47,0.47,0,0,1,.23.16,0.61,0.61,0,0,1,.18.25,0.38,0.38,0,0,1-.16.27l-0.52.5a3,3,0,0,1-.81.54q-0.47.21-1.16,0.45a3.9,3.9,0,0,1-1.44.2,2.91,2.91,0,0,1-2.19-.86A3.06,3.06,0,0,1,244.47,186.09Z"/>
  <g>
    <polygon points="669 144.78 669 115.16 674.77 115.16 674.77 116.54 670.4 116.54 670.4 144.78 669 144.78"/>
    <rect x="669" y="143.96" width="1.4" height="65.86"/>
    <polygon points="669 225.62 669 208.99 670.4 208.99 670.4 224.23 674.77 224.23 674.77 225.62 669 225.62"/>
  </g>
  <g>
    <polygon points="933 116.54 933 115.16 938.77 115.16 938.77 144.78 937.38 144.78 937.38 116.54 933 116.54"/>
    <rect x="937.38" y="143.96" width="1.4" height="65.86"/>
    <polygon points="937.38 224.23 937.38 208.99 938.77 208.99 938.77 225.62 933 225.62 933 224.23 937.38 224.23"/>
  </g>
  <g>
    <path d="M849.87,187v-0.08a0.8,0.8,0,0,0-.81-1,1.15,1.15,0,0,0-.46.11,1.75,1.75,0,0,0-.44.28l-0.35.32a1.72,1.72,0,0,0-.24.29l-0.08.11-0.28,1.13a7.49,7.49,0,0,0-.29,1.6,1.28,1.28,0,0,0,.32.95,0.72,0.72,0,0,0,.53.21,1.33,1.33,0,0,0,.89-0.42,2.25,2.25,0,0,0,.53-0.74,8.7,8.7,0,0,0,.44-1.38A6.39,6.39,0,0,0,849.87,187Zm-3.49-4.23a1,1,0,0,1,.05-0.3,0.19,0.19,0,0,1,.16-0.17l1-.07,1-.08q0.16,0,.16.12t-0.45,1.88l-0.23.92q-0.12.47-.2,0.71l-0.05.25s0,0,.08,0a2.12,2.12,0,0,1,1.34-.53,1.64,1.64,0,0,1,1.33.6,2.35,2.35,0,0,1,.52,1.52,3.88,3.88,0,0,1-1,2.64,3,3,0,0,1-2.26,1.18,1.75,1.75,0,0,1-1.21-.5,2.14,2.14,0,0,1-.56-1.62v-0.12a3.82,3.82,0,0,1,.11-0.76q0.11-.49.65-2.59,0.66-2.59.66-2.75t-0.5-.18h-0.35a0.16,0.16,0,0,1-.09,0A0.08,0.08,0,0,1,846.38,182.78Z"/>
    <path d="M852.59,188.16V188a0.29,0.29,0,0,1,.19-0.26h4v-3.94a0.35,0.35,0,0,1,.25-0.17,0.29,0.29,0,0,1,.27.2v3.91h4a0.27,0.27,0,0,1,0,.53h-4v3.91a0.3,0.3,0,0,1-.24.18H857a0.26,0.26,0,0,1-.24-0.18v-3.91h-4a0.29,0.29,0,0,1-.19-0.26v0.17Z"/>
    <path d="M863.36,189.19a3.56,3.56,0,0,1,1.14-2.57,3.45,3.45,0,0,1,2.47-1.14,1.92,1.92,0,0,1,1.17.32,1,1,0,0,1,.44.83,0.9,0.9,0,0,1-.89.92,0.57,0.57,0,0,1-.4-0.13,0.5,0.5,0,0,1-.15-0.39,0.7,0.7,0,0,1,.15-0.45,1.21,1.21,0,0,1,.29-0.28,0.33,0.33,0,0,1,.19-0.08h0a0.16,0.16,0,0,0-.08-0.08,1,1,0,0,0-.28-0.11A1.77,1.77,0,0,0,867,186a1.64,1.64,0,0,0-.76.18,1.88,1.88,0,0,0-.57.41,3.41,3.41,0,0,0-.85,1.63,8,8,0,0,0-.28,1.52,1.14,1.14,0,0,0,.35.91,1,1,0,0,0,.77.32h0.05a3.11,3.11,0,0,0,2.46-1.12,0.38,0.38,0,0,1,.16-0.13,0.34,0.34,0,0,1,.17.12,0.45,0.45,0,0,1,.13.18,0.28,0.28,0,0,1-.12.2l-0.39.37a2.2,2.2,0,0,1-.6.39q-0.35.16-.85,0.33a2.86,2.86,0,0,1-1.06.14,2.13,2.13,0,0,1-1.61-.63A2.26,2.26,0,0,1,863.36,189.19Z"/>
    <g>
      <rect x="838.48" y="187.83" width="6.24" height="0.6"/>
      <path d="M841.22,180.27l-0.13,0-0.4.1a4.69,4.69,0,0,1-.58.07h-0.19V180h0.19a3.31,3.31,0,0,0,.88-0.15,2.39,2.39,0,0,0,.56-0.24,2.58,2.58,0,0,0,.28-0.22,0.15,0.15,0,0,1,.12,0,0.28,0.28,0,0,1,.17.06v6a0.4,0.4,0,0,0,.12.09l0.24,0,0.62,0h0.26V186h-0.11q-0.21,0-1.6,0t-1.58,0H840v-0.46h0.9l0.16,0,0.08,0,0.06,0a0.08,0.08,0,0,1,.06,0v-5.15Z"/>
      <path d="M840.18,192.63a0.55,0.55,0,0,1-.43-0.18,0.63,0.63,0,0,1-.16-0.44,1.65,1.65,0,0,1,.53-1.23,1.83,1.83,0,0,1,1.33-.52,2.19,2.19,0,0,1,1.53.56,1.89,1.89,0,0,1,.62,1.44,1.75,1.75,0,0,1-.2.82,2.82,2.82,0,0,1-.48.68q-0.28.29-.81,0.74-0.36.31-1,.92l-0.59.56h0.77a12.21,12.21,0,0,0,1.68,0,2.68,2.68,0,0,0,.24-0.89v0h0.4v0s-0.05.32-.13,0.91a7.36,7.36,0,0,1-.15.92v0h-3.74v-0.31a0.25,0.25,0,0,1,.06-0.15l0.3-.35,0.5-.56,0.34-.37,0.34-.37,0.29-.33,0.28-.34,0.23-.3a1.7,1.7,0,0,0,.21-0.32l0.15-.29a1.28,1.28,0,0,0,.13-0.32l0.07-.3a1.57,1.57,0,0,0,0-.33,1.76,1.76,0,0,0-.34-1.09,1.15,1.15,0,0,0-1-.46,1,1,0,0,0-.58.17,1.21,1.21,0,0,0-.35.33,0.71,0.71,0,0,0-.1.19h0.05a0.64,0.64,0,0,1,.37.14,0.53,0.53,0,0,1,.19.46,0.58,0.58,0,0,1-.16.42A0.63,0.63,0,0,1,840.18,192.63Z"/>
    </g>
  </g>
  <g>
    <path d="M752.91,186.88a1.18,1.18,0,0,0-.07-0.29,1.25,1.25,0,0,0-.31-0.46,0.85,0.85,0,0,0-.61-0.26,1.28,1.28,0,0,0-.89.41,2.74,2.74,0,0,0-.66,1.06,10.4,10.4,0,0,0-.54,2.15v0.14a0.7,0.7,0,0,1,0,.16,1.1,1.1,0,0,0,.24.81,0.86,0.86,0,0,0,.57.24,1.51,1.51,0,0,0,1-.43,2.21,2.21,0,0,0,.58-0.67s0.14-.5.36-1.41S752.9,186.95,752.91,186.88Zm-4.22,2.25a3.86,3.86,0,0,1,1-2.52,3,3,0,0,1,2.27-1.21,1.51,1.51,0,0,1,1.19.64,0.66,0.66,0,0,1,.61-0.39,0.48,0.48,0,0,1,.31.11,0.32,0.32,0,0,1,.13.26q0,0.17-.49,2.1t-0.5,2.18a0.7,0.7,0,0,0,.09.43,0.39,0.39,0,0,0,.28.12,0.58,0.58,0,0,0,.27-0.12,3,3,0,0,0,.54-1.26,0.49,0.49,0,0,1,.13-0.28h0.19q0.25,0,.25.12a2.06,2.06,0,0,1-.07.35,4.09,4.09,0,0,1-.27.71,2.24,2.24,0,0,1-.42.66,1.31,1.31,0,0,1-.42.28,1.43,1.43,0,0,1-.32,0,1.37,1.37,0,0,1-.76-0.2,1,1,0,0,1-.4-0.41l-0.08-.2s0,0-.05,0l-0.05.05a2.34,2.34,0,0,1-1.59.74,1.82,1.82,0,0,1-1.29-.53A2.2,2.2,0,0,1,748.68,189.13Z"/>
    <path d="M757.83,188.07V187.9a0.29,0.29,0,0,1,.19-0.26h4V183.7a0.35,0.35,0,0,1,.25-0.17,0.29,0.29,0,0,1,.27.2v3.91h4a0.27,0.27,0,0,1,0,.53h-4v3.91a0.3,0.3,0,0,1-.24.18h-0.05a0.26,0.26,0,0,1-.24-0.18v-3.91h-4a0.29,0.29,0,0,1-.19-0.26v0.17Z"/>
    <path d="M780.82,186.92v-0.08a0.8,0.8,0,0,0-.81-1,1.15,1.15,0,0,0-.46.11,1.75,1.75,0,0,0-.44.28l-0.35.32a1.72,1.72,0,0,0-.24.29l-0.08.11-0.28,1.13a7.48,7.48,0,0,0-.29,1.6,1.28,1.28,0,0,0,.32.95,0.72,0.72,0,0,0,.53.21,1.33,1.33,0,0,0,.89-0.42,2.25,2.25,0,0,0,.53-0.74,8.69,8.69,0,0,0,.44-1.38A6.39,6.39,0,0,0,780.82,186.92Zm-3.49-4.23a1,1,0,0,1,.05-0.3,0.19,0.19,0,0,1,.16-0.17l1-.07,1-.08q0.16,0,.16.12t-0.45,1.88l-0.23.92q-0.12.47-.2,0.71l-0.05.25s0,0,.08,0a2.12,2.12,0,0,1,1.34-.53,1.64,1.64,0,0,1,1.33.6,2.35,2.35,0,0,1,.52,1.52,3.88,3.88,0,0,1-1,2.64,3,3,0,0,1-2.26,1.18,1.75,1.75,0,0,1-1.21-.5,2.14,2.14,0,0,1-.56-1.62V189.1a3.82,3.82,0,0,1,.11-0.76q0.11-.49.65-2.59,0.66-2.59.66-2.75t-0.5-.18h-0.35a0.16,0.16,0,0,1-.09,0A0.08,0.08,0,0,1,777.32,182.69Z"/>
    <g>
      <rect x="769.2" y="187.38" width="6.24" height="0.6"/>
      <path d="M771.95,179.83l-0.13,0-0.4.1a4.69,4.69,0,0,1-.58.07h-0.19v-0.46h0.19a3.31,3.31,0,0,0,.88-0.15,2.39,2.39,0,0,0,.56-0.24,2.58,2.58,0,0,0,.28-0.22,0.15,0.15,0,0,1,.12,0,0.28,0.28,0,0,1,.17.06v6a0.4,0.4,0,0,0,.12.09l0.24,0,0.62,0h0.26v0.46H774q-0.21,0-1.6,0t-1.58,0h-0.12v-0.46h0.9l0.16,0,0.08,0,0.06,0a0.08,0.08,0,0,1,.06,0v-5.15Z"/>
      <path d="M770.9,192.18a0.55,0.55,0,0,1-.43-0.18,0.63,0.63,0,0,1-.16-0.44,1.65,1.65,0,0,1,.53-1.23,1.83,1.83,0,0,1,1.33-.52,2.19,2.19,0,0,1,1.53.56,1.89,1.89,0,0,1,.62,1.44,1.75,1.75,0,0,1-.2.82,2.82,2.82,0,0,1-.48.68q-0.28.29-.81,0.74-0.36.31-1,.92l-0.59.56H772a12.21,12.21,0,0,0,1.68,0,2.68,2.68,0,0,0,.24-0.89v0h0.4v0s-0.05.32-.13,0.91a7.36,7.36,0,0,1-.15.92v0H770.3v-0.31a0.25,0.25,0,0,1,.06-0.15l0.3-.35,0.5-.56,0.34-.37,0.34-.37,0.29-.33,0.28-.34,0.23-.3a1.7,1.7,0,0,0,.21-0.32l0.15-.29a1.28,1.28,0,0,0,.13-0.32l0.07-.3a1.57,1.57,0,0,0,0-.33,1.76,1.76,0,0,0-.34-1.09,1.15,1.15,0,0,0-1-.46,1,1,0,0,0-.58.17,1.21,1.21,0,0,0-.35.33,0.71,0.71,0,0,0-.1.19h0.05a0.64,0.64,0,0,1,.37.14,0.53,0.53,0,0,1,.19.46,0.58,0.58,0,0,1-.16.42A0.63,0.63,0,0,1,770.9,192.18Z"/>
    </g>
  </g>
  <g>
    <path d="M762.13,127V127a0.8,0.8,0,0,0-.81-1,1.15,1.15,0,0,0-.46.11,1.75,1.75,0,0,0-.44.28l-0.35.32a1.72,1.72,0,0,0-.24.29l-0.08.11-0.28,1.13a7.49,7.49,0,0,0-.29,1.6,1.28,1.28,0,0,0,.32.95,0.72,0.72,0,0,0,.53.21,1.33,1.33,0,0,0,.89-0.42,2.25,2.25,0,0,0,.53-0.74,8.7,8.7,0,0,0,.44-1.38A6.39,6.39,0,0,0,762.13,127Zm-3.49-4.23a1,1,0,0,1,.05-0.3,0.19,0.19,0,0,1,.16-0.17l1-.07,1-.08q0.16,0,.16.12t-0.45,1.88l-0.23.92q-0.12.47-.2,0.71l-0.05.25s0,0,.08,0a2.12,2.12,0,0,1,1.34-.53,1.64,1.64,0,0,1,1.33.6,2.35,2.35,0,0,1,.52,1.52,3.88,3.88,0,0,1-1,2.64,3,3,0,0,1-2.26,1.18,1.75,1.75,0,0,1-1.21-.5,2.14,2.14,0,0,1-.56-1.62v-0.12a3.82,3.82,0,0,1,.11-0.76q0.11-.49.65-2.59,0.66-2.59.66-2.75t-0.5-.18h-0.35a0.16,0.16,0,0,1-.09,0A0.08,0.08,0,0,1,758.64,122.82Z"/>
    <path d="M764.86,128.2V128a0.29,0.29,0,0,1,.19-0.26h4v-3.94a0.35,0.35,0,0,1,.25-0.17,0.29,0.29,0,0,1,.27.2v3.91h4a0.27,0.27,0,0,1,0,.53h-4v3.91a0.3,0.3,0,0,1-.24.18h-0.05a0.26,0.26,0,0,1-.24-0.18v-3.91h-4a0.29,0.29,0,0,1-.19-0.26v0.17Z"/>
    <path d="M775.62,129.23a3.56,3.56,0,0,1,1.14-2.57,3.45,3.45,0,0,1,2.47-1.14,1.92,1.92,0,0,1,1.17.32,1,1,0,0,1,.44.83,0.9,0.9,0,0,1-.89.92,0.57,0.57,0,0,1-.4-0.13,0.5,0.5,0,0,1-.15-0.39,0.7,0.7,0,0,1,.15-0.45,1.21,1.21,0,0,1,.29-0.28,0.33,0.33,0,0,1,.19-0.08h0a0.16,0.16,0,0,0-.08-0.08,1,1,0,0,0-.28-0.11,1.77,1.77,0,0,0-.45-0.05,1.64,1.64,0,0,0-.76.18,1.88,1.88,0,0,0-.57.41,3.41,3.41,0,0,0-.85,1.63,8,8,0,0,0-.28,1.52,1.14,1.14,0,0,0,.35.91,1,1,0,0,0,.77.32h0.05a3.11,3.11,0,0,0,2.46-1.12,0.38,0.38,0,0,1,.16-0.13,0.34,0.34,0,0,1,.17.12,0.45,0.45,0,0,1,.13.18,0.28,0.28,0,0,1-.12.2l-0.39.37a2.2,2.2,0,0,1-.6.39q-0.35.16-.85,0.33a2.86,2.86,0,0,1-1.06.14,2.13,2.13,0,0,1-1.61-.63A2.26,2.26,0,0,1,775.62,129.23Z"/>
    <g>
      <rect x="750.74" y="127.87" width="6.24" height="0.6"/>
      <path d="M753.49,120.31l-0.13,0-0.4.1a4.69,4.69,0,0,1-.58.07h-0.19v-0.46h0.19a3.31,3.31,0,0,0,.88-0.15,2.39,2.39,0,0,0,.56-0.24,2.58,2.58,0,0,0,.28-0.22,0.15,0.15,0,0,1,.12,0,0.28,0.28,0,0,1,.17.06v6a0.4,0.4,0,0,0,.12.09l0.24,0,0.62,0h0.26v0.46h-0.11q-0.21,0-1.6,0t-1.58,0h-0.12v-0.46h0.9l0.16,0,0.08,0,0.06,0a0.08,0.08,0,0,1,.06,0v-5.15Z"/>
      <path d="M752.44,132.67a0.55,0.55,0,0,1-.43-0.18,0.63,0.63,0,0,1-.16-0.44,1.65,1.65,0,0,1,.53-1.23,1.83,1.83,0,0,1,1.33-.52,2.19,2.19,0,0,1,1.53.56,1.89,1.89,0,0,1,.62,1.44,1.75,1.75,0,0,1-.2.82,2.82,2.82,0,0,1-.48.68q-0.28.29-.81,0.74-0.36.31-1,.92l-0.59.56h0.77a12.21,12.21,0,0,0,1.68,0,2.68,2.68,0,0,0,.24-0.89v0h0.4v0s-0.05.32-.13,0.91a7.36,7.36,0,0,1-.15.92v0h-3.74v-0.31a0.25,0.25,0,0,1,.06-0.15l0.3-.35,0.5-.56,0.34-.37,0.34-.37,0.29-.33,0.28-.34,0.23-.3a1.7,1.7,0,0,0,.21-0.32l0.15-.29a1.28,1.28,0,0,0,.13-0.32l0.07-.3a1.57,1.57,0,0,0,0-.33,1.76,1.76,0,0,0-.34-1.09,1.15,1.15,0,0,0-1-.46,1,1,0,0,0-.58.17,1.21,1.21,0,0,0-.35.33,0.71,0.71,0,0,0-.1.19h0.05a0.64,0.64,0,0,1,.37.14,0.53,0.53,0,0,1,.19.46,0.58,0.58,0,0,1-.16.42A0.63,0.63,0,0,1,752.44,132.67Z"/>
    </g>
  </g>
  <g>
    <path d="M687.76,126.92a1.18,1.18,0,0,0-.07-0.29,1.25,1.25,0,0,0-.31-0.46,0.85,0.85,0,0,0-.61-0.26,1.28,1.28,0,0,0-.89.41,2.74,2.74,0,0,0-.66,1.06,10.4,10.4,0,0,0-.54,2.15v0.14a0.7,0.7,0,0,1,0,.16,1.1,1.1,0,0,0,.24.81,0.86,0.86,0,0,0,.57.24,1.51,1.51,0,0,0,1-.43,2.21,2.21,0,0,0,.58-0.67s0.14-.5.36-1.41S687.75,127,687.76,126.92Zm-4.22,2.25a3.86,3.86,0,0,1,1-2.52,3,3,0,0,1,2.27-1.21,1.51,1.51,0,0,1,1.19.64,0.66,0.66,0,0,1,.61-0.39,0.48,0.48,0,0,1,.31.11,0.32,0.32,0,0,1,.13.26q0,0.17-.49,2.1t-0.5,2.18a0.7,0.7,0,0,0,.09.43,0.39,0.39,0,0,0,.28.12,0.58,0.58,0,0,0,.27-0.12,3,3,0,0,0,.54-1.26,0.49,0.49,0,0,1,.13-0.28h0.19q0.25,0,.25.12a2.06,2.06,0,0,1-.07.35,4.09,4.09,0,0,1-.27.71,2.24,2.24,0,0,1-.42.66,1.31,1.31,0,0,1-.42.28,1.43,1.43,0,0,1-.32,0,1.37,1.37,0,0,1-.76-0.2,1,1,0,0,1-.4-0.41l-0.08-.2s0,0-.05,0l-0.05.05a2.34,2.34,0,0,1-1.59.74,1.82,1.82,0,0,1-1.29-.53A2.2,2.2,0,0,1,683.53,129.16Z"/>
    <path d="M692.68,128.11v-0.17a0.29,0.29,0,0,1,.19-0.26h4v-3.94a0.35,0.35,0,0,1,.25-0.17,0.29,0.29,0,0,1,.27.2v3.91h4a0.27,0.27,0,0,1,0,.53h-4v3.91a0.3,0.3,0,0,1-.24.18h-0.05a0.26,0.26,0,0,1-.24-0.18V128.2h-4a0.29,0.29,0,0,1-.19-0.26v0.17Z"/>
    <path d="M715.67,127v-0.08a0.8,0.8,0,0,0-.81-1,1.15,1.15,0,0,0-.46.11,1.75,1.75,0,0,0-.44.28l-0.35.32a1.72,1.72,0,0,0-.24.29l-0.08.11L713,128.13a7.48,7.48,0,0,0-.29,1.6,1.28,1.28,0,0,0,.32.95,0.72,0.72,0,0,0,.53.21,1.33,1.33,0,0,0,.89-0.42,2.25,2.25,0,0,0,.53-0.74,8.69,8.69,0,0,0,.44-1.38A6.39,6.39,0,0,0,715.67,127Zm-3.49-4.23a1,1,0,0,1,.05-0.3,0.19,0.19,0,0,1,.16-0.17l1-.07,1-.08q0.16,0,.16.12T714,124.11l-0.23.92q-0.12.47-.2,0.71l-0.05.25s0,0,.08,0a2.12,2.12,0,0,1,1.34-.53,1.64,1.64,0,0,1,1.33.6,2.35,2.35,0,0,1,.52,1.52,3.88,3.88,0,0,1-1,2.64,3,3,0,0,1-2.26,1.18,1.75,1.75,0,0,1-1.21-.5,2.14,2.14,0,0,1-.56-1.62v-0.12a3.82,3.82,0,0,1,.11-0.76q0.11-.49.65-2.59,0.66-2.59.66-2.75t-0.5-.18h-0.35a0.16,0.16,0,0,1-.09,0A0.08,0.08,0,0,1,712.18,122.73Z"/>
    <g>
      <rect x="704.05" y="127.42" width="6.24" height="0.6"/>
      <path d="M706.8,119.87l-0.13,0-0.4.1a4.69,4.69,0,0,1-.58.07h-0.19v-0.46h0.19a3.31,3.31,0,0,0,.88-0.15,2.39,2.39,0,0,0,.56-0.24,2.58,2.58,0,0,0,.28-0.22,0.15,0.15,0,0,1,.12,0,0.28,0.28,0,0,1,.17.06v6a0.4,0.4,0,0,0,.12.09l0.24,0,0.62,0H709v0.46h-0.11q-0.21,0-1.6,0t-1.58,0h-0.12v-0.46h0.9l0.16,0,0.08,0,0.06,0a0.08,0.08,0,0,1,.06,0v-5.15Z"/>
      <path d="M705.75,132.22a0.55,0.55,0,0,1-.43-0.18,0.63,0.63,0,0,1-.16-0.44,1.65,1.65,0,0,1,.53-1.23,1.83,1.83,0,0,1,1.33-.52,2.19,2.19,0,0,1,1.53.56,1.89,1.89,0,0,1,.62,1.44,1.75,1.75,0,0,1-.2.82,2.82,2.82,0,0,1-.48.68q-0.28.29-.81,0.74-0.36.31-1,.92l-0.59.56h0.77a12.21,12.21,0,0,0,1.68,0,2.68,2.68,0,0,0,.24-0.89v0h0.4v0s-0.05.32-.13,0.91a7.36,7.36,0,0,1-.15.92v0h-3.74v-0.31a0.25,0.25,0,0,1,.06-0.15l0.3-.35,0.5-.56,0.34-.37,0.34-.37,0.29-.33,0.28-.34,0.23-.3a1.7,1.7,0,0,0,.21-0.32l0.15-.29a1.28,1.28,0,0,0,.13-0.32l0.07-.3a1.57,1.57,0,0,0,0-.33,1.76,1.76,0,0,0-.34-1.09,1.15,1.15,0,0,0-1-.46,1,1,0,0,0-.58.17,1.21,1.21,0,0,0-.35.33,0.71,0.71,0,0,0-.1.19h0.05a0.64,0.64,0,0,1,.37.14,0.53,0.53,0,0,1,.19.46,0.58,0.58,0,0,1-.16.42A0.63,0.63,0,0,1,705.75,132.22Z"/>
    </g>
  </g>
  <g>
    <path d="M749.63,156.38a1.18,1.18,0,0,0-.07-0.29,1.25,1.25,0,0,0-.31-0.46,0.85,0.85,0,0,0-.61-0.26,1.28,1.28,0,0,0-.89.41,2.74,2.74,0,0,0-.66,1.06,10.4,10.4,0,0,0-.54,2.15v0.14a0.69,0.69,0,0,1,0,.16,1.1,1.1,0,0,0,.24.81,0.86,0.86,0,0,0,.57.24,1.51,1.51,0,0,0,1-.43,2.21,2.21,0,0,0,.58-0.67s0.14-.5.36-1.41S749.62,156.45,749.63,156.38Zm-4.22,2.25a3.86,3.86,0,0,1,1-2.52,3,3,0,0,1,2.27-1.21,1.51,1.51,0,0,1,1.19.64,0.66,0.66,0,0,1,.61-0.39,0.48,0.48,0,0,1,.31.11,0.32,0.32,0,0,1,.13.26q0,0.17-.49,2.1t-0.5,2.18a0.7,0.7,0,0,0,.09.43,0.39,0.39,0,0,0,.28.12,0.58,0.58,0,0,0,.27-0.12,3,3,0,0,0,.54-1.26,0.49,0.49,0,0,1,.13-0.28h0.19q0.25,0,.25.12a2.07,2.07,0,0,1-.07.35,4.09,4.09,0,0,1-.27.71,2.23,2.23,0,0,1-.42.66,1.32,1.32,0,0,1-.42.28,1.43,1.43,0,0,1-.32,0,1.37,1.37,0,0,1-.76-0.2,1,1,0,0,1-.4-0.41L749,160s0,0-.05,0l-0.05.05a2.34,2.34,0,0,1-1.59.74,1.82,1.82,0,0,1-1.29-.53A2.2,2.2,0,0,1,745.41,158.62Z"/>
    <path d="M753.48,157.57V157.4a0.29,0.29,0,0,1,.19-0.26h4V153.2a0.35,0.35,0,0,1,.25-0.17,0.29,0.29,0,0,1,.27.2v3.91h4a0.27,0.27,0,0,1,0,.53h-4v3.91a0.3,0.3,0,0,1-.24.18h-0.05a0.26,0.26,0,0,1-.24-0.18v-3.91h-4a0.29,0.29,0,0,1-.19-0.26v0.17Z"/>
    <path d="M768.25,156.42v-0.08a0.8,0.8,0,0,0-.81-1,1.15,1.15,0,0,0-.46.11,1.75,1.75,0,0,0-.44.28l-0.35.32a1.72,1.72,0,0,0-.24.29l-0.08.11-0.28,1.13a7.49,7.49,0,0,0-.29,1.6,1.28,1.28,0,0,0,.32.95,0.72,0.72,0,0,0,.53.21,1.33,1.33,0,0,0,.89-0.42,2.25,2.25,0,0,0,.53-0.74,8.69,8.69,0,0,0,.44-1.38A6.39,6.39,0,0,0,768.25,156.42Zm-3.49-4.23a1,1,0,0,1,.05-0.3,0.19,0.19,0,0,1,.16-0.17l1-.07,1-.08q0.16,0,.16.12t-0.45,1.88l-0.23.92q-0.12.47-.2,0.71l-0.05.25s0,0,.08,0a2.12,2.12,0,0,1,1.34-.53,1.64,1.64,0,0,1,1.33.6,2.35,2.35,0,0,1,.52,1.52,3.88,3.88,0,0,1-1,2.64,3,3,0,0,1-2.26,1.18,1.75,1.75,0,0,1-1.21-.5,2.14,2.14,0,0,1-.56-1.62V158.6a3.82,3.82,0,0,1,.11-0.76q0.11-.49.65-2.59,0.66-2.59.66-2.75t-0.5-.18H764.9a0.17,0.17,0,0,1-.09,0A0.08,0.08,0,0,1,764.76,152.19Z"/>
    <path d="M771,157.57V157.4a0.29,0.29,0,0,1,.19-0.26h4V153.2a0.35,0.35,0,0,1,.25-0.17,0.29,0.29,0,0,1,.27.2v3.91h4a0.27,0.27,0,0,1,0,.53h-4v3.91a0.3,0.3,0,0,1-.24.18h-0.05a0.26,0.26,0,0,1-.24-0.18v-3.91h-4a0.29,0.29,0,0,1-.19-0.26v0.17Z"/>
    <path d="M788.87,158.6A3.56,3.56,0,0,1,790,156a3.45,3.45,0,0,1,2.47-1.14,1.92,1.92,0,0,1,1.17.32,1,1,0,0,1,.44.83,0.9,0.9,0,0,1-.89.92,0.57,0.57,0,0,1-.4-0.13,0.5,0.5,0,0,1-.15-0.39,0.7,0.7,0,0,1,.15-0.45,1.21,1.21,0,0,1,.29-0.28,0.33,0.33,0,0,1,.19-0.08h0a0.15,0.15,0,0,0-.08-0.08,1,1,0,0,0-.28-0.11,1.78,1.78,0,0,0-.45-0.05,1.64,1.64,0,0,0-.76.18,1.88,1.88,0,0,0-.57.41,3.41,3.41,0,0,0-.85,1.63,8,8,0,0,0-.28,1.52,1.14,1.14,0,0,0,.35.91,1,1,0,0,0,.77.32h0.05a3.11,3.11,0,0,0,2.46-1.12,0.38,0.38,0,0,1,.16-0.13,0.34,0.34,0,0,1,.17.12,0.45,0.45,0,0,1,.13.18,0.28,0.28,0,0,1-.12.2l-0.38.37a2.2,2.2,0,0,1-.6.39q-0.35.16-.85,0.33a2.86,2.86,0,0,1-1.06.14,2.13,2.13,0,0,1-1.61-.63A2.26,2.26,0,0,1,788.87,158.6Z"/>
    <g>
      <rect x="736.98" y="156.95" width="6.24" height="0.6"/>
      <path d="M739.73,149.39l-0.13,0-0.4.1a4.69,4.69,0,0,1-.58.07h-0.19v-0.46h0.19a3.31,3.31,0,0,0,.88-0.15,2.39,2.39,0,0,0,.56-0.24,2.58,2.58,0,0,0,.28-0.22,0.15,0.15,0,0,1,.12,0,0.28,0.28,0,0,1,.17.06v6a0.4,0.4,0,0,0,.12.09l0.24,0,0.62,0h0.26v0.46h-0.11q-0.21,0-1.6,0t-1.58,0h-0.12v-0.46h0.9l0.16,0,0.08,0,0.06,0a0.08,0.08,0,0,1,.06,0v-5.15Z"/>
      <path d="M738.69,161.75a0.55,0.55,0,0,1-.43-0.18,0.63,0.63,0,0,1-.16-0.44,1.65,1.65,0,0,1,.53-1.23,1.83,1.83,0,0,1,1.33-.52,2.19,2.19,0,0,1,1.53.56,1.89,1.89,0,0,1,.62,1.44,1.75,1.75,0,0,1-.2.82,2.82,2.82,0,0,1-.48.68q-0.28.29-.81,0.74-0.36.31-1,.92l-0.59.56h0.77a12.21,12.21,0,0,0,1.68,0,2.68,2.68,0,0,0,.24-0.89v0h0.4v0s-0.05.32-.13,0.91a7.36,7.36,0,0,1-.15.92v0h-3.74v-0.31a0.25,0.25,0,0,1,.06-0.15l0.3-.35,0.5-.56,0.34-.37,0.34-.37,0.29-.33,0.28-.34,0.23-.3a1.7,1.7,0,0,0,.21-0.32l0.15-.29a1.28,1.28,0,0,0,.13-0.32l0.07-.3a1.57,1.57,0,0,0,0-.33,1.76,1.76,0,0,0-.34-1.09,1.15,1.15,0,0,0-1-.46,1,1,0,0,0-.58.17,1.21,1.21,0,0,0-.35.33,0.71,0.71,0,0,0-.1.19h0.05a0.64,0.64,0,0,1,.37.14,0.53,0.53,0,0,1,.19.46,0.58,0.58,0,0,1-.16.42A0.63,0.63,0,0,1,738.69,161.75Z"/>
    </g>
    <g>
      <rect x="781.44" y="156.95" width="6.24" height="0.6"/>
      <path d="M784.19,149.39l-0.13,0-0.4.1a4.69,4.69,0,0,1-.58.07h-0.19v-0.46h0.19a3.31,3.31,0,0,0,.88-0.15,2.39,2.39,0,0,0,.56-0.24,2.58,2.58,0,0,0,.28-0.22,0.15,0.15,0,0,1,.12,0,0.28,0.28,0,0,1,.17.06v6a0.4,0.4,0,0,0,.12.09l0.24,0,0.62,0h0.26v0.46h-0.11q-0.21,0-1.6,0t-1.58,0h-0.12v-0.46h0.9l0.16,0,0.08,0,0.06,0a0.08,0.08,0,0,1,.06,0v-5.15Z"/>
      <path d="M783.14,161.75a0.55,0.55,0,0,1-.43-0.18,0.63,0.63,0,0,1-.16-0.44,1.65,1.65,0,0,1,.53-1.23,1.83,1.83,0,0,1,1.33-.52,2.19,2.19,0,0,1,1.53.56,1.89,1.89,0,0,1,.62,1.44,1.75,1.75,0,0,1-.2.82,2.82,2.82,0,0,1-.48.68q-0.28.29-.81,0.74-0.36.31-1,.92l-0.59.56h0.77a12.21,12.21,0,0,0,1.68,0,2.68,2.68,0,0,0,.24-0.89v0h0.4v0s-0.05.32-.13,0.91a7.36,7.36,0,0,1-.15.92v0h-3.74v-0.31a0.25,0.25,0,0,1,.06-0.15l0.3-.35,0.5-.56,0.34-.37,0.34-.37,0.29-.33,0.28-.34,0.23-.3a1.7,1.7,0,0,0,.21-0.32l0.15-.29a1.28,1.28,0,0,0,.13-0.32l0.07-.3a1.57,1.57,0,0,0,0-.33,1.76,1.76,0,0,0-.34-1.09,1.15,1.15,0,0,0-1-.46,1,1,0,0,0-.58.17,1.21,1.21,0,0,0-.35.33,0.71,0.71,0,0,0-.1.19h0.05a0.64,0.64,0,0,1,.37.14,0.53,0.53,0,0,1,.19.46,0.58,0.58,0,0,1-.16.42A0.63,0.63,0,0,1,783.14,161.75Z"/>
    </g>
  </g>
  <g>
    <path d="M853.13,158.87a3.56,3.56,0,0,1,1.14-2.57,3.45,3.45,0,0,1,2.47-1.14,1.92,1.92,0,0,1,1.17.32,1,1,0,0,1,.44.83,0.9,0.9,0,0,1-.89.92,0.57,0.57,0,0,1-.4-0.13,0.5,0.5,0,0,1-.15-0.39,0.7,0.7,0,0,1,.15-0.45,1.21,1.21,0,0,1,.29-0.28,0.33,0.33,0,0,1,.19-0.08h0a0.16,0.16,0,0,0-.08-0.08,1,1,0,0,0-.28-0.11,1.77,1.77,0,0,0-.45-0.05,1.63,1.63,0,0,0-.76.18,1.88,1.88,0,0,0-.57.41,3.41,3.41,0,0,0-.85,1.63,8,8,0,0,0-.28,1.52,1.14,1.14,0,0,0,.35.91,1,1,0,0,0,.77.32h0.05a3.11,3.11,0,0,0,2.46-1.12,0.38,0.38,0,0,1,.16-0.13,0.34,0.34,0,0,1,.17.12,0.45,0.45,0,0,1,.13.18,0.28,0.28,0,0,1-.12.2l-0.39.37a2.2,2.2,0,0,1-.6.39q-0.35.16-.85,0.33a2.86,2.86,0,0,1-1.06.14,2.13,2.13,0,0,1-1.61-.63A2.26,2.26,0,0,1,853.13,158.87Z"/>
    <g>
      <rect x="846.22" y="158.29" width="6.24" height="0.6"/>
      <path d="M849,150.73l-0.13,0-0.4.1a4.69,4.69,0,0,1-.58.07h-0.19V150.5h0.19a3.31,3.31,0,0,0,.88-0.15,2.39,2.39,0,0,0,.56-0.24,2.58,2.58,0,0,0,.28-0.22,0.15,0.15,0,0,1,.12,0,0.28,0.28,0,0,1,.17.06v6a0.4,0.4,0,0,0,.12.09l0.24,0,0.62,0h0.26v0.46H851q-0.21,0-1.6,0t-1.58,0h-0.12V156h0.9l0.16,0,0.08,0,0.06,0a0.08,0.08,0,0,1,.06,0v-5.15Z"/>
      <path d="M847.92,163.09a0.55,0.55,0,0,1-.43-0.18,0.63,0.63,0,0,1-.16-0.44,1.65,1.65,0,0,1,.53-1.23,1.83,1.83,0,0,1,1.33-.52,2.19,2.19,0,0,1,1.53.56,1.89,1.89,0,0,1,.62,1.44,1.75,1.75,0,0,1-.2.82,2.82,2.82,0,0,1-.48.68q-0.28.29-.81,0.74-0.36.31-1,.92l-0.59.56H849a12.21,12.21,0,0,0,1.68,0,2.68,2.68,0,0,0,.24-0.89v0h0.4v0s-0.05.32-.13,0.91a7.36,7.36,0,0,1-.15.92v0h-3.74v-0.31a0.25,0.25,0,0,1,.06-0.15l0.3-.35,0.5-.56,0.34-.37,0.34-.37,0.29-.33,0.28-.34,0.23-.3a1.7,1.7,0,0,0,.21-0.32l0.15-.29a1.28,1.28,0,0,0,.13-0.32l0.07-.3a1.57,1.57,0,0,0,0-.33,1.76,1.76,0,0,0-.34-1.09,1.15,1.15,0,0,0-1-.46,1,1,0,0,0-.58.17,1.21,1.21,0,0,0-.35.33,0.71,0.71,0,0,0-.1.19H848a0.64,0.64,0,0,1,.37.14,0.53,0.53,0,0,1,.19.46,0.58,0.58,0,0,1-.16.42A0.63,0.63,0,0,1,847.92,163.09Z"/>
    </g>
  </g>
  <g>
    <path d="M918.9,214.87A3.56,3.56,0,0,1,920,212.3a3.45,3.45,0,0,1,2.47-1.14,1.92,1.92,0,0,1,1.17.32,1,1,0,0,1,.44.83,0.9,0.9,0,0,1-.89.92,0.57,0.57,0,0,1-.4-0.13,0.5,0.5,0,0,1-.15-0.39,0.7,0.7,0,0,1,.15-0.45,1.21,1.21,0,0,1,.29-0.28,0.33,0.33,0,0,1,.19-0.08h0a0.16,0.16,0,0,0-.08-0.08,1,1,0,0,0-.28-0.11,1.77,1.77,0,0,0-.45-0.05,1.63,1.63,0,0,0-.76.18,1.88,1.88,0,0,0-.57.41,3.41,3.41,0,0,0-.85,1.63,8,8,0,0,0-.28,1.52,1.14,1.14,0,0,0,.35.91,1,1,0,0,0,.77.32h0.05a3.11,3.11,0,0,0,2.46-1.12,0.38,0.38,0,0,1,.16-0.13,0.34,0.34,0,0,1,.17.12,0.45,0.45,0,0,1,.13.18,0.28,0.28,0,0,1-.12.2l-0.39.37a2.2,2.2,0,0,1-.6.39q-0.35.16-.85,0.33a2.86,2.86,0,0,1-1.06.14,2.13,2.13,0,0,1-1.61-.63A2.26,2.26,0,0,1,918.9,214.87Z"/>
    <g>
      <rect x="911.99" y="214.3" width="6.24" height="0.6"/>
      <path d="M914.74,206.74l-0.13,0-0.4.1a4.69,4.69,0,0,1-.58.07h-0.19V206.5h0.19a3.31,3.31,0,0,0,.88-0.15,2.39,2.39,0,0,0,.56-0.24,2.58,2.58,0,0,0,.28-0.22,0.15,0.15,0,0,1,.12,0,0.28,0.28,0,0,1,.17.06v6a0.4,0.4,0,0,0,.12.09l0.24,0,0.62,0h0.26v0.46h-0.11q-0.21,0-1.6,0t-1.58,0h-0.12V212h0.9l0.16,0,0.08,0,0.06,0a0.08,0.08,0,0,1,.06,0v-5.15Z"/>
      <path d="M913.69,219.1a0.55,0.55,0,0,1-.43-0.18,0.63,0.63,0,0,1-.16-0.44,1.65,1.65,0,0,1,.53-1.23,1.83,1.83,0,0,1,1.33-.52,2.19,2.19,0,0,1,1.53.56,1.89,1.89,0,0,1,.62,1.44,1.75,1.75,0,0,1-.2.82,2.82,2.82,0,0,1-.48.68q-0.28.29-.81,0.74-0.36.31-1,.92l-0.59.56h0.77a12.21,12.21,0,0,0,1.68,0,2.68,2.68,0,0,0,.24-0.89v0h0.4v0s-0.05.32-.13,0.91a7.36,7.36,0,0,1-.15.92v0h-3.74v-0.31a0.25,0.25,0,0,1,.06-0.15l0.3-.35L914,222l0.34-.37,0.34-.37,0.29-.33,0.28-.34,0.23-.3a1.7,1.7,0,0,0,.21-0.32l0.15-.29a1.28,1.28,0,0,0,.13-0.32l0.07-.3a1.57,1.57,0,0,0,0-.33,1.76,1.76,0,0,0-.34-1.09,1.15,1.15,0,0,0-1-.46,1,1,0,0,0-.58.17,1.21,1.21,0,0,0-.35.33,0.71,0.71,0,0,0-.1.19h0.05a0.64,0.64,0,0,1,.37.14,0.53,0.53,0,0,1,.19.46,0.58,0.58,0,0,1-.16.42A0.63,0.63,0,0,1,913.69,219.1Z"/>
    </g>
  </g>
  <g>
    <path d="M836.93,214.93a1.18,1.18,0,0,0-.07-0.29,1.25,1.25,0,0,0-.31-0.46,0.85,0.85,0,0,0-.61-0.26,1.28,1.28,0,0,0-.89.41,2.74,2.74,0,0,0-.66,1.06,10.4,10.4,0,0,0-.54,2.15v0.14a0.69,0.69,0,0,1,0,.16,1.1,1.1,0,0,0,.24.81,0.86,0.86,0,0,0,.57.24,1.51,1.51,0,0,0,1-.43,2.21,2.21,0,0,0,.58-0.67s0.14-.5.36-1.41S836.92,215,836.93,214.93Zm-4.22,2.25a3.86,3.86,0,0,1,1-2.52,3,3,0,0,1,2.27-1.21,1.51,1.51,0,0,1,1.19.64,0.66,0.66,0,0,1,.61-0.39,0.48,0.48,0,0,1,.31.11,0.32,0.32,0,0,1,.13.26q0,0.17-.49,2.1t-0.5,2.18a0.7,0.7,0,0,0,.09.43,0.39,0.39,0,0,0,.28.12,0.58,0.58,0,0,0,.27-0.12,3,3,0,0,0,.54-1.26,0.49,0.49,0,0,1,.13-0.28h0.19q0.25,0,.25.12a2.07,2.07,0,0,1-.07.35,4.09,4.09,0,0,1-.27.71,2.23,2.23,0,0,1-.42.66,1.32,1.32,0,0,1-.42.28,1.43,1.43,0,0,1-.32,0,1.37,1.37,0,0,1-.76-0.2,1,1,0,0,1-.4-0.41l-0.08-.2s0,0-.05,0l-0.05.05a2.34,2.34,0,0,1-1.59.74,1.82,1.82,0,0,1-1.29-.53A2.2,2.2,0,0,1,832.7,217.18Z"/>
    <path d="M840.78,216.13V216a0.29,0.29,0,0,1,.19-0.26h4v-3.94a0.35,0.35,0,0,1,.25-0.17,0.29,0.29,0,0,1,.27.2v3.91h4a0.27,0.27,0,0,1,0,.53h-4v3.91a0.3,0.3,0,0,1-.24.18h-0.05a0.26,0.26,0,0,1-.24-0.18v-3.91h-4a0.29,0.29,0,0,1-.19-0.26v0.17Z"/>
    <path d="M855.55,215v-0.08a0.8,0.8,0,0,0-.81-1,1.15,1.15,0,0,0-.46.11,1.75,1.75,0,0,0-.44.28l-0.35.32a1.72,1.72,0,0,0-.24.29l-0.08.11-0.28,1.13a7.49,7.49,0,0,0-.29,1.6,1.28,1.28,0,0,0,.32.95,0.72,0.72,0,0,0,.53.21,1.33,1.33,0,0,0,.89-0.42,2.25,2.25,0,0,0,.53-0.74,8.69,8.69,0,0,0,.44-1.38A6.39,6.39,0,0,0,855.55,215Zm-3.49-4.23a1,1,0,0,1,.05-0.3,0.19,0.19,0,0,1,.16-0.17l1-.07,1-.08q0.16,0,.16.12t-0.45,1.88l-0.23.92q-0.12.47-.2,0.71l-0.05.25s0,0,.08,0a2.12,2.12,0,0,1,1.34-.53,1.64,1.64,0,0,1,1.33.6,2.35,2.35,0,0,1,.52,1.52,3.88,3.88,0,0,1-1,2.64,3,3,0,0,1-2.26,1.18,1.75,1.75,0,0,1-1.21-.5,2.14,2.14,0,0,1-.56-1.62v-0.12a3.82,3.82,0,0,1,.11-0.76q0.11-.49.65-2.59,0.66-2.59.66-2.75t-0.5-.18h-0.35a0.17,0.17,0,0,1-.09,0A0.08,0.08,0,0,1,852.06,210.74Z"/>
    <path d="M858.27,216.13V216a0.29,0.29,0,0,1,.19-0.26h4v-3.94a0.35,0.35,0,0,1,.25-0.17,0.29,0.29,0,0,1,.27.2v3.91h4a0.27,0.27,0,0,1,0,.53h-4v3.91a0.3,0.3,0,0,1-.24.18h-0.05a0.26,0.26,0,0,1-.24-0.18v-3.91h-4a0.29,0.29,0,0,1-.19-0.26v0.17Z"/>
    <path d="M876.17,217.15a3.56,3.56,0,0,1,1.14-2.57,3.45,3.45,0,0,1,2.47-1.14,1.92,1.92,0,0,1,1.17.32,1,1,0,0,1,.44.83,0.9,0.9,0,0,1-.89.92,0.57,0.57,0,0,1-.4-0.13A0.5,0.5,0,0,1,880,215a0.7,0.7,0,0,1,.15-0.45,1.21,1.21,0,0,1,.29-0.28,0.33,0.33,0,0,1,.19-0.08h0a0.15,0.15,0,0,0-.08-0.08,1,1,0,0,0-.28-0.11,1.78,1.78,0,0,0-.45-0.05,1.64,1.64,0,0,0-.76.18,1.88,1.88,0,0,0-.57.41,3.41,3.41,0,0,0-.85,1.63,8,8,0,0,0-.28,1.52,1.14,1.14,0,0,0,.35.91,1,1,0,0,0,.77.32h0.05a3.11,3.11,0,0,0,2.46-1.12,0.38,0.38,0,0,1,.16-0.13,0.34,0.34,0,0,1,.17.12,0.45,0.45,0,0,1,.13.18,0.28,0.28,0,0,1-.12.2l-0.38.37a2.2,2.2,0,0,1-.6.39q-0.35.16-.85,0.33a2.86,2.86,0,0,1-1.06.14,2.13,2.13,0,0,1-1.61-.63A2.26,2.26,0,0,1,876.17,217.15Z"/>
    <g>
      <rect x="824.28" y="215.5" width="6.24" height="0.6"/>
      <path d="M827,207.95l-0.13,0-0.4.1a4.69,4.69,0,0,1-.58.07h-0.19v-0.46h0.19a3.31,3.31,0,0,0,.88-0.15,2.39,2.39,0,0,0,.56-0.24,2.58,2.58,0,0,0,.28-0.22,0.15,0.15,0,0,1,.12,0,0.28,0.28,0,0,1,.17.06v6a0.4,0.4,0,0,0,.12.09l0.24,0,0.62,0h0.26v0.46h-0.11q-0.21,0-1.6,0t-1.58,0h-0.12v-0.46h0.9l0.16,0,0.08,0,0.06,0a0.08,0.08,0,0,1,.06,0v-5.15Z"/>
      <path d="M826,220.3a0.55,0.55,0,0,1-.43-0.18,0.63,0.63,0,0,1-.16-0.44,1.65,1.65,0,0,1,.53-1.23,1.83,1.83,0,0,1,1.33-.52,2.19,2.19,0,0,1,1.53.56,1.89,1.89,0,0,1,.62,1.44,1.75,1.75,0,0,1-.2.82,2.82,2.82,0,0,1-.48.68q-0.28.29-.81,0.74-0.36.31-1,.92l-0.59.56h0.77a12.21,12.21,0,0,0,1.68,0,2.68,2.68,0,0,0,.24-0.89v0h0.4v0s-0.05.32-.13,0.91a7.36,7.36,0,0,1-.15.92v0h-3.74v-0.31a0.25,0.25,0,0,1,.06-0.15l0.3-.35,0.5-.56,0.34-.37,0.34-.37,0.29-.33,0.28-.34,0.23-.3a1.7,1.7,0,0,0,.21-0.32l0.15-.29a1.28,1.28,0,0,0,.13-0.32l0.07-.3a1.57,1.57,0,0,0,0-.33,1.76,1.76,0,0,0-.34-1.09,1.15,1.15,0,0,0-1-.46,1,1,0,0,0-.58.17,1.21,1.21,0,0,0-.35.33,0.71,0.71,0,0,0-.1.19H826a0.64,0.64,0,0,1,.37.14,0.53,0.53,0,0,1,.19.46,0.58,0.58,0,0,1-.16.42A0.63,0.63,0,0,1,826,220.3Z"/>
    </g>
    <g>
      <rect x="868.74" y="215.5" width="6.24" height="0.6"/>
      <path d="M871.49,207.95l-0.13,0-0.4.1a4.69,4.69,0,0,1-.58.07h-0.19v-0.46h0.19a3.31,3.31,0,0,0,.88-0.15,2.39,2.39,0,0,0,.56-0.24,2.58,2.58,0,0,0,.28-0.22,0.15,0.15,0,0,1,.12,0,0.28,0.28,0,0,1,.17.06v6a0.4,0.4,0,0,0,.12.09l0.24,0,0.62,0h0.26v0.46h-0.11q-0.21,0-1.6,0t-1.58,0h-0.12v-0.46h0.9l0.16,0,0.08,0,0.06,0a0.08,0.08,0,0,1,.06,0v-5.15Z"/>
      <path d="M870.44,220.3a0.55,0.55,0,0,1-.43-0.18,0.63,0.63,0,0,1-.16-0.44,1.65,1.65,0,0,1,.53-1.23,1.83,1.83,0,0,1,1.33-.52,2.19,2.19,0,0,1,1.53.56,1.89,1.89,0,0,1,.62,1.44,1.75,1.75,0,0,1-.2.82,2.82,2.82,0,0,1-.48.68q-0.28.29-.81,0.74-0.36.31-1,.92l-0.59.56h0.77a12.21,12.21,0,0,0,1.68,0,2.68,2.68,0,0,0,.24-0.89v0h0.4v0s-0.05.32-.13,0.91a7.36,7.36,0,0,1-.15.92v0h-3.74v-0.31a0.25,0.25,0,0,1,.06-0.15l0.3-.35,0.5-.56,0.34-.37,0.34-.37,0.29-.33,0.28-.34,0.23-.3a1.7,1.7,0,0,0,.21-0.32l0.15-.29a1.28,1.28,0,0,0,.13-0.32l0.07-.3a1.57,1.57,0,0,0,0-.33,1.76,1.76,0,0,0-.34-1.09,1.15,1.15,0,0,0-1-.46,1,1,0,0,0-.58.17,1.21,1.21,0,0,0-.35.33,0.71,0.71,0,0,0-.1.19h0.05a0.64,0.64,0,0,1,.37.14,0.53,0.53,0,0,1,.19.46,0.58,0.58,0,0,1-.16.42A0.63,0.63,0,0,1,870.44,220.3Z"/>
    </g>
  </g>
  <g>
    <path d="M770.83,214.93a1.18,1.18,0,0,0-.07-0.29,1.25,1.25,0,0,0-.31-0.46,0.85,0.85,0,0,0-.61-0.26,1.28,1.28,0,0,0-.89.41,2.74,2.74,0,0,0-.66,1.06,10.4,10.4,0,0,0-.54,2.15v0.14a0.69,0.69,0,0,1,0,.16,1.1,1.1,0,0,0,.24.81,0.86,0.86,0,0,0,.57.24,1.51,1.51,0,0,0,1-.43,2.22,2.22,0,0,0,.58-0.67s0.14-.5.36-1.41S770.82,215,770.83,214.93Zm-4.22,2.25a3.86,3.86,0,0,1,1-2.52,3,3,0,0,1,2.27-1.21,1.51,1.51,0,0,1,1.19.64,0.66,0.66,0,0,1,.61-0.39,0.48,0.48,0,0,1,.31.11,0.32,0.32,0,0,1,.13.26q0,0.17-.49,2.1t-0.5,2.18a0.7,0.7,0,0,0,.09.43,0.39,0.39,0,0,0,.28.12,0.58,0.58,0,0,0,.27-0.12,3,3,0,0,0,.54-1.26,0.49,0.49,0,0,1,.13-0.28h0.19q0.25,0,.25.12a2.07,2.07,0,0,1-.07.35,4.09,4.09,0,0,1-.27.71,2.24,2.24,0,0,1-.42.66,1.31,1.31,0,0,1-.42.28,1.43,1.43,0,0,1-.32,0,1.37,1.37,0,0,1-.76-0.2,1,1,0,0,1-.4-0.41l-0.08-.2s0,0-.05,0l-0.05.05a2.34,2.34,0,0,1-1.59.74,1.82,1.82,0,0,1-1.29-.53A2.2,2.2,0,0,1,766.61,217.18Z"/>
    <g>
      <rect x="758.82" y="215.5" width="6.24" height="0.6"/>
      <path d="M761.57,207.95l-0.13,0-0.4.1a4.69,4.69,0,0,1-.58.07h-0.19v-0.46h0.19a3.31,3.31,0,0,0,.88-0.15,2.39,2.39,0,0,0,.56-0.24,2.58,2.58,0,0,0,.28-0.22,0.15,0.15,0,0,1,.12,0,0.28,0.28,0,0,1,.17.06v6a0.4,0.4,0,0,0,.12.09l0.24,0,0.62,0h0.26v0.46h-0.11q-0.21,0-1.6,0t-1.58,0h-0.12v-0.46h0.9l0.16,0,0.08,0,0.06,0a0.08,0.08,0,0,1,.06,0v-5.15Z"/>
      <path d="M760.52,220.3a0.55,0.55,0,0,1-.43-0.18,0.63,0.63,0,0,1-.16-0.44,1.65,1.65,0,0,1,.53-1.23,1.83,1.83,0,0,1,1.33-.52,2.19,2.19,0,0,1,1.53.56,1.89,1.89,0,0,1,.62,1.44,1.75,1.75,0,0,1-.2.82,2.82,2.82,0,0,1-.48.68q-0.28.29-.81,0.74-0.36.31-1,.92l-0.59.56h0.77a12.21,12.21,0,0,0,1.68,0,2.68,2.68,0,0,0,.24-0.89v0h0.4v0s-0.05.32-.13,0.91a7.36,7.36,0,0,1-.15.92v0h-3.74v-0.31a0.25,0.25,0,0,1,.06-0.15l0.3-.35,0.5-.56,0.34-.37,0.34-.37,0.29-.33,0.28-.34,0.23-.3a1.7,1.7,0,0,0,.21-0.32l0.15-.29a1.28,1.28,0,0,0,.13-0.32l0.07-.3a1.57,1.57,0,0,0,0-.33,1.76,1.76,0,0,0-.34-1.09,1.15,1.15,0,0,0-1-.46,1,1,0,0,0-.58.17,1.21,1.21,0,0,0-.35.33,0.71,0.71,0,0,0-.1.19h0.05a0.64,0.64,0,0,1,.37.14,0.53,0.53,0,0,1,.19.46,0.58,0.58,0,0,1-.16.42A0.63,0.63,0,0,1,760.52,220.3Z"/>
    </g>
  </g>
  <g>
    <path d="M706.83,156.38a1.18,1.18,0,0,0-.07-0.29,1.25,1.25,0,0,0-.31-0.46,0.85,0.85,0,0,0-.61-0.26,1.28,1.28,0,0,0-.89.41,2.74,2.74,0,0,0-.66,1.06,10.4,10.4,0,0,0-.54,2.15v0.14a0.69,0.69,0,0,1,0,.16,1.1,1.1,0,0,0,.24.81,0.86,0.86,0,0,0,.57.24,1.51,1.51,0,0,0,1-.43,2.22,2.22,0,0,0,.58-0.67s0.14-.5.36-1.41S706.82,156.45,706.83,156.38Zm-4.22,2.25a3.86,3.86,0,0,1,1-2.52,3,3,0,0,1,2.27-1.21,1.51,1.51,0,0,1,1.19.64,0.66,0.66,0,0,1,.61-0.39,0.48,0.48,0,0,1,.31.11,0.32,0.32,0,0,1,.13.26q0,0.17-.49,2.1t-0.5,2.18a0.7,0.7,0,0,0,.09.43,0.39,0.39,0,0,0,.28.12,0.58,0.58,0,0,0,.27-0.12,3,3,0,0,0,.54-1.26,0.49,0.49,0,0,1,.13-0.28h0.19q0.25,0,.25.12a2.07,2.07,0,0,1-.07.35,4.09,4.09,0,0,1-.27.71,2.24,2.24,0,0,1-.42.66,1.31,1.31,0,0,1-.42.28,1.43,1.43,0,0,1-.32,0,1.37,1.37,0,0,1-.76-0.2,1,1,0,0,1-.4-0.41l-0.08-.2s0,0-.05,0l-0.05.05a2.34,2.34,0,0,1-1.59.74,1.82,1.82,0,0,1-1.29-.53A2.2,2.2,0,0,1,702.61,158.62Z"/>
    <g>
      <rect x="694.82" y="156.95" width="6.24" height="0.6"/>
      <path d="M697.57,149.39l-0.13,0-0.4.1a4.69,4.69,0,0,1-.58.07h-0.19v-0.46h0.19a3.31,3.31,0,0,0,.88-0.15,2.39,2.39,0,0,0,.56-0.24,2.58,2.58,0,0,0,.28-0.22,0.15,0.15,0,0,1,.12,0,0.28,0.28,0,0,1,.17.06v6a0.4,0.4,0,0,0,.12.09l0.24,0,0.62,0h0.26v0.46h-0.11q-0.21,0-1.6,0t-1.58,0h-0.12v-0.46h0.9l0.16,0,0.08,0,0.06,0a0.08,0.08,0,0,1,.06,0v-5.15Z"/>
      <path d="M696.52,161.75a0.55,0.55,0,0,1-.43-0.18,0.63,0.63,0,0,1-.16-0.44,1.65,1.65,0,0,1,.53-1.23,1.83,1.83,0,0,1,1.33-.52,2.19,2.19,0,0,1,1.53.56,1.89,1.89,0,0,1,.62,1.44,1.75,1.75,0,0,1-.2.82,2.82,2.82,0,0,1-.48.68q-0.28.29-.81,0.74-0.36.31-1,.92l-0.59.56h0.77a12.21,12.21,0,0,0,1.68,0,2.68,2.68,0,0,0,.24-0.89v0h0.4v0s-0.05.32-.13,0.91a7.36,7.36,0,0,1-.15.92v0h-3.74v-0.31a0.25,0.25,0,0,1,.06-0.15l0.3-.35,0.5-.56,0.34-.37,0.34-.37,0.29-.33,0.28-.34,0.23-.3a1.7,1.7,0,0,0,.21-0.32l0.15-.29a1.28,1.28,0,0,0,.13-0.32l0.07-.3a1.57,1.57,0,0,0,0-.33,1.76,1.76,0,0,0-.34-1.09,1.15,1.15,0,0,0-1-.46,1,1,0,0,0-.58.17,1.21,1.21,0,0,0-.35.33,0.71,0.71,0,0,0-.1.19h0.05a0.64,0.64,0,0,1,.37.14,0.53,0.53,0,0,1,.19.46,0.58,0.58,0,0,1-.16.42A0.63,0.63,0,0,1,696.52,161.75Z"/>
    </g>
  </g>
  <text transform="translate(45 246.16)" font-size="14" fill="#231f20" font-family="Open Sans" font-weight="700">Deconvolution</text>
  <text transform="translate(356.95 246.16)" font-size="14" fill="#231f20" font-family="Open Sans" font-weight="700">NN-Resize Convolution</text>
  <text transform="translate(669 246.16)" font-size="14" fill="#231f20" font-family="Open Sans" font-weight="700">Bilinear-Resize Convolution</text>
  <polygon points="357 22.16 357 82.16 417 82.16 387 22.16 357 22.16" fill="navy" stroke="navy" stroke-miterlimit="10" opacity="0.22"/>
  <polygon points="417 22.16 387 82.16 477 82.16 447 22.16 417 22.16" fill="navy" stroke="navy" stroke-miterlimit="10" opacity="0.22"/>
  <polygon points="387 22.32 357 82.32 447 82.32 417 22.32 387 22.32" fill="navy" stroke="navy" stroke-miterlimit="10" opacity="0.22"/>
  <polygon points="447 22.16 417 82.16 507 82.16 477 22.16 447 22.16" fill="navy" stroke="navy" stroke-miterlimit="10" opacity="0.22"/>
  <polygon points="507 22.16 477 82.16 567 82.16 537 22.16 507 22.16" fill="navy" stroke="navy" stroke-miterlimit="10" opacity="0.22"/>
  <polygon points="477 22.16 447 82.16 537 82.16 507 22.16 477 22.16" fill="navy" stroke="navy" stroke-miterlimit="10" opacity="0.22"/>
  <polygon points="597 22.16 567 82.16 627 82.16 627 22.16 597 22.16" fill="navy" stroke="navy" stroke-miterlimit="10" opacity="0.22"/>
  <rect x="357" y="5.16" width="30.33" height="16.92" fill="#727273" stroke="#231f20" stroke-miterlimit="10"/>
  <rect x="387.33" y="5.16" width="29.92" height="16.92" fill="silver" stroke="#231f20" stroke-miterlimit="10"/>
  <rect x="417.25" y="5.16" width="29.92" height="16.92" fill="#727273" stroke="#231f20" stroke-miterlimit="10"/>
  <rect x="447.17" y="5.16" width="29.92" height="16.92" fill="silver" stroke="#231f20" stroke-miterlimit="10"/>
  <rect x="477.08" y="5.16" width="29.92" height="16.92" fill="#727273" stroke="#231f20" stroke-miterlimit="10"/>
  <rect x="507" y="5.16" width="29.92" height="16.92" fill="silver" stroke="#231f20" stroke-miterlimit="10"/>
  <rect x="596.92" y="5.16" width="30.08" height="16.92" fill="#727273" stroke="#231f20" stroke-miterlimit="10"/>
  <rect x="357" y="82.16" width="30.33" height="16.92" fill="silver" stroke="#231f20" stroke-miterlimit="10"/>
  <rect x="387.33" y="82.16" width="29.92" height="16.92" fill="#727273" stroke="#231f20" stroke-miterlimit="10"/>
  <rect x="417.25" y="82.16" width="29.92" height="16.92" fill="#727273" stroke="#231f20" stroke-miterlimit="10"/>
  <rect x="447.17" y="82.16" width="29.92" height="16.92" fill="#727273" stroke="#231f20" stroke-miterlimit="10"/>
  <rect x="477.08" y="82.16" width="29.92" height="16.92" fill="#727273" stroke="#231f20" stroke-miterlimit="10"/>
  <rect x="507" y="82.16" width="29.92" height="16.92" fill="#727273" stroke="#231f20" stroke-miterlimit="10"/>
  <rect x="596.92" y="82.16" width="30.08" height="16.92" fill="silver" stroke="#231f20" stroke-miterlimit="10"/>
  <g>
    <line x1="379.5" y1="13.16" x2="393.73" y2="13.16" fill="none" stroke="#231f20" stroke-miterlimit="10"/>
    <path d="M398,13.16a21.15,21.15,0,0,0-6,3.33l1.2-3.33L392,9.83A21.13,21.13,0,0,0,398,13.16Z" fill="#231f20"/>
  </g>
  <g>
    <line x1="439.5" y1="13.16" x2="454.56" y2="13.16" fill="none" stroke="#231f20" stroke-miterlimit="10"/>
    <path d="M458.79,13.16a21.15,21.15,0,0,0-6,3.33l1.2-3.33-1.2-3.33A21.13,21.13,0,0,0,458.79,13.16Z" fill="#231f20"/>
  </g>
  <g>
    <line x1="500.21" y1="13.16" x2="515.28" y2="13.16" fill="none" stroke="#231f20" stroke-miterlimit="10"/>
    <path d="M519.5,13.16a21.15,21.15,0,0,0-6,3.33l1.2-3.33-1.2-3.33A21.13,21.13,0,0,0,519.5,13.16Z" fill="#231f20"/>
  </g>
  <polygon points="567 22.16 537 82.16 627 82.16 597 22.16 567 22.16" fill="navy" stroke="navy" stroke-miterlimit="10" opacity="0.22"/>
  <polygon points="537 22.16 507 82.16 597 82.16 567 22.16 537 22.16" fill="navy" stroke="navy" stroke-miterlimit="10" opacity="0.22"/>
  <rect x="537.08" y="5.16" width="29.92" height="16.92" fill="#727273" stroke="#231f20" stroke-miterlimit="10"/>
  <rect x="567" y="5.16" width="29.92" height="16.92" fill="silver" stroke="#231f20" stroke-miterlimit="10"/>
  <rect x="537.08" y="82.16" width="29.92" height="16.92" fill="#727273" stroke="#231f20" stroke-miterlimit="10"/>
  <rect x="567" y="82.16" width="29.92" height="16.92" fill="#727273" stroke="#231f20" stroke-miterlimit="10"/>
  <g>
    <line x1="560.21" y1="13.16" x2="575.28" y2="13.16" fill="none" stroke="#231f20" stroke-miterlimit="10"/>
    <path d="M579.5,13.16a21.15,21.15,0,0,0-6,3.33l1.2-3.33-1.2-3.33A21.13,21.13,0,0,0,579.5,13.16Z" fill="#231f20"/>
  </g>
  <polygon points="669 22.24 669 82.24 729 82.24 699 22.24 669 22.24" fill="navy" stroke="navy" stroke-miterlimit="10" opacity="0.22"/>
  <polygon points="729 22.24 699 82.24 789 82.24 759 22.24 729 22.24" fill="navy" stroke="navy" stroke-miterlimit="10" opacity="0.22"/>
  <polygon points="699 22.24 669 82.24 759 82.24 729 22.24 699 22.24" fill="navy" stroke="navy" stroke-miterlimit="10" opacity="0.22"/>
  <polygon points="759 22.24 729 82.24 819 82.24 789 22.24 759 22.24" fill="navy" stroke="navy" stroke-miterlimit="10" opacity="0.22"/>
  <polygon points="819 22.24 789 82.24 879 82.24 849 22.24 819 22.24" fill="navy" stroke="navy" stroke-miterlimit="10" opacity="0.22"/>
  <polygon points="789 22.24 759 82.24 849 82.24 819 22.24 789 22.24" fill="navy" stroke="navy" stroke-miterlimit="10" opacity="0.22"/>
  <polygon points="909 22.24 879 82.24 939 82.24 939 22.24 909 22.24" fill="navy" stroke="navy" stroke-miterlimit="10" opacity="0.22"/>
  <rect x="669" y="5.24" width="30.33" height="16.92" fill="#727273" stroke="#231f20" stroke-miterlimit="10"/>
  <rect x="699.33" y="5.24" width="29.92" height="16.92" fill="silver" stroke="#231f20" stroke-miterlimit="10"/>
  <rect x="729.25" y="5.24" width="29.92" height="16.92" fill="#727273" stroke="#231f20" stroke-miterlimit="10"/>
  <rect x="759.17" y="5.24" width="29.92" height="16.92" fill="silver" stroke="#231f20" stroke-miterlimit="10"/>
  <rect x="789.08" y="5.24" width="29.92" height="16.92" fill="#727273" stroke="#231f20" stroke-miterlimit="10"/>
  <rect x="819" y="5.24" width="29.92" height="16.92" fill="silver" stroke="#231f20" stroke-miterlimit="10"/>
  <rect x="908.92" y="5.24" width="30.08" height="16.92" fill="#727273" stroke="#231f20" stroke-miterlimit="10"/>
  <rect x="669" y="82.24" width="30.33" height="16.92" fill="silver" stroke="#231f20" stroke-miterlimit="10"/>
  <rect x="699.33" y="82.24" width="29.92" height="16.92" fill="#727273" stroke="#231f20" stroke-miterlimit="10"/>
  <rect x="729.25" y="82.24" width="29.92" height="16.92" fill="#727273" stroke="#231f20" stroke-miterlimit="10"/>
  <rect x="759.17" y="82.24" width="29.92" height="16.92" fill="#727273" stroke="#231f20" stroke-miterlimit="10"/>
  <rect x="789.08" y="82.24" width="29.92" height="16.92" fill="#727273" stroke="#231f20" stroke-miterlimit="10"/>
  <rect x="819" y="82.24" width="29.92" height="16.92" fill="#727273" stroke="#231f20" stroke-miterlimit="10"/>
  <rect x="908.92" y="82.24" width="30.08" height="16.92" fill="silver" stroke="#231f20" stroke-miterlimit="10"/>
  <g>
    <line x1="751.5" y1="13.24" x2="766.56" y2="13.24" fill="none" stroke="#231f20" stroke-miterlimit="10"/>
    <path d="M770.79,13.24a21.16,21.16,0,0,0-6,3.33l1.2-3.33-1.2-3.33A21.13,21.13,0,0,0,770.79,13.24Z" fill="#231f20"/>
  </g>
  <g>
    <line x1="796.5" y1="13.24" x2="777.21" y2="13.24" fill="#d8d9e8"/>
    <g>
      <line x1="796.5" y1="13.24" x2="781.44" y2="13.24" fill="none" stroke="#231f20" stroke-miterlimit="10"/>
      <path d="M777.21,13.24a21.15,21.15,0,0,0,6-3.33L782,13.24l1.2,3.33A21.14,21.14,0,0,0,777.21,13.24Z" fill="#231f20"/>
    </g>
  </g>
  <g>
    <line x1="811.5" y1="13.24" x2="826.56" y2="13.24" fill="none" stroke="#231f20" stroke-miterlimit="10"/>
    <path d="M830.79,13.24a21.16,21.16,0,0,0-6,3.33l1.2-3.33-1.2-3.33A21.13,21.13,0,0,0,830.79,13.24Z" fill="#231f20"/>
  </g>
  <polygon points="879 22.24 849 82.24 939 82.24 909 22.24 879 22.24" fill="navy" stroke="navy" stroke-miterlimit="10" opacity="0.22"/>
  <polygon points="849 22.24 819 82.24 909 82.24 879 22.24 849 22.24" fill="navy" stroke="navy" stroke-miterlimit="10" opacity="0.22"/>
  <rect x="849.08" y="5.24" width="29.92" height="16.92" fill="#727273" stroke="#231f20" stroke-miterlimit="10"/>
  <rect x="879" y="5.24" width="29.92" height="16.92" fill="silver" stroke="#231f20" stroke-miterlimit="10"/>
  <rect x="849.08" y="82.24" width="29.92" height="16.92" fill="#727273" stroke="#231f20" stroke-miterlimit="10"/>
  <rect x="879" y="82.24" width="29.92" height="16.92" fill="#727273" stroke="#231f20" stroke-miterlimit="10"/>
  <g>
    <line x1="871.5" y1="13.24" x2="886.56" y2="13.24" fill="none" stroke="#231f20" stroke-miterlimit="10"/>
    <path d="M890.79,13.24a21.16,21.16,0,0,0-6,3.33l1.2-3.33-1.2-3.33A21.13,21.13,0,0,0,890.79,13.24Z" fill="#231f20"/>
  </g>
  <g>
    <line x1="916.5" y1="13.24" x2="897.21" y2="13.24" fill="#d8d9e8"/>
    <g>
      <line x1="916.5" y1="13.24" x2="901.44" y2="13.24" fill="none" stroke="#231f20" stroke-miterlimit="10"/>
      <path d="M897.21,13.24a21.15,21.15,0,0,0,6-3.33L902,13.24l1.2,3.33A21.14,21.14,0,0,0,897.21,13.24Z" fill="#231f20"/>
    </g>
  </g>
  <g>
    <line x1="691.5" y1="13.24" x2="706.56" y2="13.24" fill="none" stroke="#231f20" stroke-miterlimit="10"/>
    <path d="M710.79,13.24a21.16,21.16,0,0,0-6,3.33l1.2-3.33-1.2-3.33A21.13,21.13,0,0,0,710.79,13.24Z" fill="#231f20"/>
  </g>
  <g>
    <line x1="736.5" y1="13.24" x2="717.21" y2="13.24" fill="#d8d9e8"/>
    <g>
      <line x1="736.5" y1="13.24" x2="721.44" y2="13.24" fill="none" stroke="#231f20" stroke-miterlimit="10"/>
      <path d="M717.21,13.24a21.15,21.15,0,0,0,6-3.33L722,13.24l1.2,3.33A21.14,21.14,0,0,0,717.21,13.24Z" fill="#231f20"/>
    </g>
  </g>
  <g>
    <line x1="856.5" y1="13.24" x2="837.21" y2="13.24" fill="#d8d9e8"/>
    <g>
      <line x1="856.5" y1="13.24" x2="841.44" y2="13.24" fill="none" stroke="#231f20" stroke-miterlimit="10"/>
      <path d="M837.21,13.24a21.15,21.15,0,0,0,6-3.33L842,13.24l1.2,3.33A21.14,21.14,0,0,0,837.21,13.24Z" fill="#231f20"/>
    </g>
  </g>
</svg>
